<svg xmlns="http://www.w3.org/2000/svg" xmlns:xlink="http://www.w3.org/1999/xlink" width="120" zoomAndPan="magnify" viewBox="0 0 90 30.000001" height="40" preserveAspectRatio="xMidYMid meet" version="1.0"><defs><clipPath id="994e00684e"><path d="M 1.453125 7 L 7 7 L 7 10 L 1.453125 10 Z M 1.453125 7 " clip-rule="nonzero"/></clipPath><clipPath id="1215c92216"><path d="M 1.453125 5 L 6 5 L 6 8 L 1.453125 8 Z M 1.453125 5 " clip-rule="nonzero"/></clipPath><clipPath id="790ac9116a"><path d="M 4 2.640625 L 6 2.640625 L 6 8 L 4 8 Z M 4 2.640625 " clip-rule="nonzero"/></clipPath><clipPath id="b63100bf2c"><path d="M 83 2.640625 L 85 2.640625 L 85 8 L 83 8 Z M 83 2.640625 " clip-rule="nonzero"/></clipPath><clipPath id="cd4343440b"><path d="M 84 2.640625 L 87 2.640625 L 87 8 L 84 8 Z M 84 2.640625 " clip-rule="nonzero"/></clipPath><clipPath id="08ebae87a2"><path d="M 83 5 L 88.546875 5 L 88.546875 8 L 83 8 Z M 83 5 " clip-rule="nonzero"/></clipPath><clipPath id="2987df7994"><path d="M 35 22 L 51 22 L 51 26.589844 L 35 26.589844 Z M 35 22 " clip-rule="nonzero"/></clipPath></defs><path fill="#107148" d="M 19.277344 8.605469 C 18.921875 8.191406 18.835938 7.757812 19.089844 7.636719 C 19.347656 7.519531 19.835938 7.757812 20.1875 8.171875 C 20.535156 8.585938 21.164062 9.402344 20.960938 9.511719 C 20.757812 9.625 19.632812 9.019531 19.277344 8.605469 Z M 19.277344 8.605469 " fill-opacity="1" fill-rule="nonzero"/><path fill="#107148" d="M 16.824219 8.621094 C 16.46875 8.207031 16.378906 7.773438 16.636719 7.652344 C 16.890625 7.535156 17.382812 7.773438 17.730469 8.1875 C 18.082031 8.601562 18.707031 9.417969 18.507812 9.527344 C 18.304688 9.636719 17.171875 9.035156 16.824219 8.621094 Z M 16.824219 8.621094 " fill-opacity="1" fill-rule="nonzero"/><path fill="#107148" d="M 23.894531 8.714844 C 23.539062 8.300781 23.453125 7.867188 23.707031 7.746094 C 23.964844 7.628906 24.453125 7.867188 24.804688 8.28125 C 25.152344 8.695312 25.761719 9.511719 25.5625 9.625 C 25.367188 9.738281 24.242188 9.125 23.894531 8.714844 Z M 23.894531 8.714844 " fill-opacity="1" fill-rule="nonzero"/><path fill="#107148" d="M 21.597656 8.496094 C 21.238281 8.082031 21.152344 7.648438 21.410156 7.53125 C 21.667969 7.410156 22.15625 7.648438 22.503906 8.0625 C 22.851562 8.476562 23.480469 9.292969 23.28125 9.402344 C 23.082031 9.515625 21.949219 8.914062 21.597656 8.496094 Z M 21.597656 8.496094 " fill-opacity="1" fill-rule="nonzero"/><path fill="#107148" d="M 30.902344 8.792969 C 30.542969 8.378906 30.457031 7.949219 30.714844 7.828125 C 30.96875 7.707031 31.460938 7.949219 31.808594 8.359375 C 32.160156 8.773438 32.785156 9.589844 32.585938 9.703125 C 32.386719 9.8125 31.253906 9.207031 30.902344 8.792969 Z M 30.902344 8.792969 " fill-opacity="1" fill-rule="nonzero"/><path fill="#107148" d="M 28.609375 8.582031 C 28.253906 8.167969 28.164062 7.734375 28.421875 7.617188 C 28.679688 7.496094 29.171875 7.734375 29.515625 8.148438 C 29.863281 8.5625 30.492188 9.378906 30.292969 9.488281 C 30.09375 9.601562 28.964844 8.996094 28.609375 8.582031 Z M 28.609375 8.582031 " fill-opacity="1" fill-rule="nonzero"/><path fill="#107148" d="M 35.84375 8.828125 C 35.484375 8.414062 35.398438 7.980469 35.65625 7.859375 C 35.910156 7.742188 36.402344 7.980469 36.75 8.394531 C 37.101562 8.804688 37.722656 9.625 37.523438 9.734375 C 37.320312 9.847656 36.203125 9.25 35.84375 8.828125 Z M 35.84375 8.828125 " fill-opacity="1" fill-rule="nonzero"/><path fill="#107148" d="M 33.558594 8.617188 C 33.199219 8.203125 33.113281 7.769531 33.371094 7.648438 C 33.628906 7.53125 34.117188 7.769531 34.464844 8.183594 C 34.8125 8.597656 35.441406 9.414062 35.238281 9.523438 C 35.039062 9.632812 33.914062 9.03125 33.558594 8.617188 Z M 33.558594 8.617188 " fill-opacity="1" fill-rule="nonzero"/><path fill="#107148" d="M 40.671875 8.722656 C 40.3125 8.308594 40.226562 7.875 40.484375 7.753906 C 40.738281 7.636719 41.230469 7.875 41.578125 8.289062 C 41.929688 8.699219 42.554688 9.519531 42.355469 9.628906 C 42.152344 9.742188 41.027344 9.136719 40.671875 8.722656 Z M 40.671875 8.722656 " fill-opacity="1" fill-rule="nonzero"/><path fill="#107148" d="M 38.378906 8.511719 C 38.023438 8.097656 37.9375 7.664062 38.191406 7.542969 C 38.449219 7.425781 38.941406 7.664062 39.289062 8.078125 C 39.632812 8.492188 40.261719 9.308594 40.0625 9.417969 C 39.863281 9.527344 38.734375 8.925781 38.378906 8.511719 Z M 38.378906 8.511719 " fill-opacity="1" fill-rule="nonzero"/><path fill="#107148" d="M 46.722656 8.609375 C 46.363281 8.195312 46.277344 7.761719 46.535156 7.640625 C 46.789062 7.523438 47.28125 7.761719 47.628906 8.175781 C 47.980469 8.585938 48.605469 9.40625 48.40625 9.519531 C 48.207031 9.628906 47.074219 9.023438 46.722656 8.609375 Z M 46.722656 8.609375 " fill-opacity="1" fill-rule="nonzero"/><path fill="#107148" d="M 44.429688 8.398438 C 44.074219 7.984375 43.984375 7.550781 44.242188 7.429688 C 44.5 7.3125 44.992188 7.550781 45.339844 7.964844 C 45.683594 8.378906 46.3125 9.195312 46.113281 9.304688 C 45.914062 9.417969 44.785156 8.8125 44.429688 8.398438 Z M 44.429688 8.398438 " fill-opacity="1" fill-rule="nonzero"/><path fill="#107148" d="M 52.132812 8.707031 C 51.773438 8.292969 51.6875 7.863281 51.945312 7.742188 C 52.199219 7.621094 52.691406 7.859375 53.039062 8.273438 C 53.390625 8.6875 54.015625 9.503906 53.816406 9.617188 C 53.617188 9.726562 52.488281 9.121094 52.132812 8.707031 Z M 52.132812 8.707031 " fill-opacity="1" fill-rule="nonzero"/><path fill="#107148" d="M 49.84375 8.496094 C 49.488281 8.082031 49.398438 7.648438 49.65625 7.53125 C 49.914062 7.410156 50.40625 7.648438 50.753906 8.0625 C 51.097656 8.476562 51.710938 9.292969 51.523438 9.40625 C 51.339844 9.515625 50.195312 8.910156 49.84375 8.496094 Z M 49.84375 8.496094 " fill-opacity="1" fill-rule="nonzero"/><path fill="#107148" d="M 57.054688 8.84375 C 56.699219 8.429688 56.609375 7.996094 56.867188 7.878906 C 57.121094 7.757812 57.613281 7.996094 57.960938 8.410156 C 58.308594 8.824219 58.9375 9.640625 58.734375 9.75 C 58.535156 9.863281 57.410156 9.25 57.054688 8.84375 Z M 57.054688 8.84375 " fill-opacity="1" fill-rule="nonzero"/><path fill="#107148" d="M 54.761719 8.632812 C 54.40625 8.214844 54.320312 7.785156 54.574219 7.664062 C 54.832031 7.542969 55.324219 7.785156 55.671875 8.199219 C 56.019531 8.613281 56.648438 9.425781 56.445312 9.539062 C 56.246094 9.648438 55.117188 9.046875 54.761719 8.632812 Z M 54.761719 8.632812 " fill-opacity="1" fill-rule="nonzero"/><path fill="#107148" d="M 64.332031 8.9375 C 63.972656 8.523438 63.886719 8.089844 64.144531 7.972656 C 64.398438 7.851562 64.890625 8.089844 65.238281 8.503906 C 65.589844 8.917969 66.214844 9.734375 66.015625 9.84375 C 65.8125 9.957031 64.6875 9.351562 64.332031 8.9375 Z M 64.332031 8.9375 " fill-opacity="1" fill-rule="nonzero"/><path fill="#107148" d="M 62.039062 8.726562 C 61.683594 8.3125 61.597656 7.878906 61.851562 7.757812 C 62.109375 7.636719 62.601562 7.878906 62.949219 8.292969 C 63.296875 8.707031 63.921875 9.523438 63.722656 9.632812 C 63.523438 9.746094 62.394531 9.140625 62.039062 8.726562 Z M 62.039062 8.726562 " fill-opacity="1" fill-rule="nonzero"/><path fill="#107148" d="M 69.128906 8.933594 C 68.773438 8.519531 68.6875 8.085938 68.941406 7.964844 C 69.199219 7.847656 69.6875 8.085938 70.039062 8.5 C 70.386719 8.910156 71.011719 9.730469 70.8125 9.839844 C 70.613281 9.953125 69.484375 9.347656 69.128906 8.933594 Z M 69.128906 8.933594 " fill-opacity="1" fill-rule="nonzero"/><path fill="#107148" d="M 66.832031 8.722656 C 66.480469 8.308594 66.390625 7.875 66.648438 7.753906 C 66.902344 7.636719 67.394531 7.875 67.742188 8.289062 C 68.089844 8.703125 68.714844 9.519531 68.515625 9.625 C 68.3125 9.734375 67.191406 9.136719 66.832031 8.722656 Z M 66.832031 8.722656 " fill-opacity="1" fill-rule="nonzero"/><path fill="#107148" d="M 76.015625 8.871094 C 75.660156 8.457031 75.574219 8.027344 75.832031 7.90625 C 76.085938 7.785156 76.578125 8.023438 76.925781 8.4375 C 77.277344 8.851562 77.902344 9.671875 77.703125 9.78125 C 77.5 9.890625 76.371094 9.289062 76.015625 8.871094 Z M 76.015625 8.871094 " fill-opacity="1" fill-rule="nonzero"/><path fill="#107148" d="M 73.726562 8.664062 C 73.371094 8.25 73.285156 7.816406 73.539062 7.695312 C 73.796875 7.578125 74.285156 7.816406 74.632812 8.230469 C 74.980469 8.644531 75.609375 9.460938 75.410156 9.570312 C 75.210938 9.683594 74.082031 9.074219 73.726562 8.664062 Z M 73.726562 8.664062 " fill-opacity="1" fill-rule="nonzero"/><path fill="#107148" d="M 78.558594 8.722656 C 78.203125 8.308594 78.117188 7.875 78.375 7.753906 C 78.628906 7.636719 79.121094 7.875 79.46875 8.289062 C 79.820312 8.703125 80.445312 9.519531 80.242188 9.628906 C 80.042969 9.738281 78.917969 9.136719 78.558594 8.722656 Z M 78.558594 8.722656 " fill-opacity="1" fill-rule="nonzero"/><path fill="#107148" d="M 11.363281 8.722656 C 11.003906 8.308594 10.917969 7.875 11.175781 7.757812 C 11.429688 7.636719 11.921875 7.875 12.269531 8.289062 C 12.621094 8.699219 13.246094 9.519531 13.046875 9.628906 C 12.84375 9.742188 11.714844 9.136719 11.363281 8.722656 Z M 11.363281 8.722656 " fill-opacity="1" fill-rule="nonzero"/><path fill="#107148" d="M 9.070312 8.511719 C 8.714844 8.097656 8.625 7.664062 8.882812 7.542969 C 9.136719 7.425781 9.628906 7.664062 9.976562 8.078125 C 10.324219 8.492188 10.953125 9.308594 10.75 9.417969 C 10.550781 9.527344 9.425781 8.925781 9.070312 8.511719 Z M 9.070312 8.511719 " fill-opacity="1" fill-rule="nonzero"/><path fill="#107148" d="M 3.472656 7.230469 C 3.386719 7.230469 3.316406 7.261719 3.257812 7.324219 C 3.195312 7.382812 3.164062 7.457031 3.164062 7.542969 C 3.164062 7.628906 3.195312 7.703125 3.257812 7.761719 C 3.316406 7.824219 3.386719 7.851562 3.472656 7.851562 C 31.113281 7.910156 58.753906 7.972656 86.390625 8.042969 C 86.484375 8.046875 86.566406 8.019531 86.636719 7.957031 C 86.707031 7.890625 86.742188 7.808594 86.742188 7.714844 C 86.742188 7.621094 86.707031 7.539062 86.636719 7.472656 C 86.566406 7.410156 86.484375 7.382812 86.390625 7.386719 C 58.753906 7.332031 31.113281 7.28125 3.472656 7.230469 Z M 3.472656 7.230469 " fill-opacity="1" fill-rule="nonzero"/><path fill="#168355" d="M 6.386719 10.023438 C 6.167969 11.285156 5.703125 12.222656 5.339844 12.121094 C 4.976562 12.015625 4.851562 10.910156 5.074219 9.652344 C 5.296875 8.390625 5.757812 7.453125 6.117188 7.554688 C 6.480469 7.652344 6.601562 8.765625 6.386719 10.023438 Z M 6.386719 10.023438 " fill-opacity="1" fill-rule="nonzero"/><path fill="#168355" d="M 5.410156 9.546875 C 4.570312 10.460938 3.660156 10.992188 3.371094 10.730469 C 3.082031 10.46875 3.535156 9.523438 4.375 8.613281 C 5.214844 7.699219 6.128906 7.175781 6.414062 7.429688 C 6.699219 7.679688 6.253906 8.632812 5.410156 9.546875 Z M 5.410156 9.546875 " fill-opacity="1" fill-rule="nonzero"/><g clip-path="url(#994e00684e)"><path fill="#168355" d="M 4.46875 8.953125 C 3.226562 9.308594 2.105469 9.316406 1.964844 8.96875 C 1.820312 8.621094 2.710938 8.058594 3.945312 7.707031 C 5.183594 7.355469 6.304688 7.347656 6.449219 7.691406 C 6.59375 8.039062 5.707031 8.601562 4.46875 8.953125 Z M 4.46875 8.953125 " fill-opacity="1" fill-rule="nonzero"/></g><path fill="#168355" d="M 8.113281 8.359375 C 9.023438 8.902344 9.667969 9.539062 9.558594 9.789062 C 9.449219 10.035156 8.625 9.789062 7.714844 9.25 C 6.800781 8.714844 6.160156 8.070312 6.269531 7.824219 C 6.378906 7.578125 7.203125 7.816406 8.113281 8.359375 Z M 8.113281 8.359375 " fill-opacity="1" fill-rule="nonzero"/><path fill="#168355" d="M 7.667969 8.960938 C 8.261719 9.875 8.566406 10.734375 8.351562 10.875 C 8.132812 11.015625 7.472656 10.390625 6.878906 9.472656 C 6.289062 8.558594 5.984375 7.699219 6.203125 7.554688 C 6.417969 7.40625 7.074219 8.042969 7.667969 8.960938 Z M 7.667969 8.960938 " fill-opacity="1" fill-rule="nonzero"/><path fill="#168355" d="M 7.144531 9.507812 C 7.285156 10.5625 7.183594 11.417969 6.917969 11.425781 C 6.648438 11.433594 6.316406 10.582031 6.167969 9.53125 C 6.023438 8.476562 6.125 7.617188 6.394531 7.609375 C 6.664062 7.601562 7 8.453125 7.144531 9.507812 Z M 7.144531 9.507812 " fill-opacity="1" fill-rule="nonzero"/><g clip-path="url(#1215c92216)"><path fill="#168355" d="M 3.253906 7.0625 C 2.214844 6.382812 1.519531 5.558594 1.707031 5.226562 C 1.894531 4.890625 2.890625 5.167969 3.929688 5.847656 C 4.96875 6.527344 5.660156 7.355469 5.476562 7.6875 C 5.289062 8.019531 4.292969 7.742188 3.253906 7.0625 Z M 3.253906 7.0625 " fill-opacity="1" fill-rule="nonzero"/></g><path fill="#168355" d="M 3.929688 6.234375 C 3.359375 5.039062 3.140625 3.90625 3.441406 3.703125 C 3.742188 3.496094 4.453125 4.308594 5.019531 5.503906 C 5.589844 6.703125 5.8125 7.835938 5.507812 8.039062 C 5.207031 8.238281 4.5 7.433594 3.929688 6.234375 Z M 3.929688 6.234375 " fill-opacity="1" fill-rule="nonzero"/><g clip-path="url(#790ac9116a)"><path fill="#168355" d="M 4.699219 5.484375 C 4.722656 4.074219 5.015625 2.917969 5.355469 2.894531 C 5.695312 2.871094 5.949219 3.992188 5.925781 5.398438 C 5.90625 6.804688 5.609375 7.960938 5.269531 7.984375 C 4.933594 8.007812 4.675781 6.878906 4.699219 5.484375 Z M 4.699219 5.484375 " fill-opacity="1" fill-rule="nonzero"/></g><path fill="#168355" d="M 6.160156 5.238281 C 6.632812 3.902344 7.277344 2.914062 7.589844 3.035156 C 7.898438 3.15625 7.765625 4.335938 7.277344 5.671875 C 6.792969 7.007812 6.160156 7.996094 5.839844 7.875 C 5.519531 7.753906 5.667969 6.574219 6.160156 5.238281 Z M 6.160156 5.238281 " fill-opacity="1" fill-rule="nonzero"/><path fill="#168355" d="M 6.945312 5.773438 C 7.929688 4.832031 8.894531 4.285156 9.101562 4.566406 C 9.3125 4.851562 8.683594 5.859375 7.699219 6.800781 C 6.714844 7.742188 5.75 8.289062 5.539062 8.003906 C 5.332031 7.722656 5.960938 6.722656 6.945312 5.773438 Z M 6.945312 5.773438 " fill-opacity="1" fill-rule="nonzero"/><path fill="#168355" d="M 7.691406 6.425781 C 8.917969 6.082031 9.960938 6.105469 10.015625 6.480469 C 10.074219 6.851562 9.121094 7.429688 7.894531 7.769531 C 6.667969 8.109375 5.621094 8.085938 5.566406 7.714844 C 5.511719 7.34375 6.460938 6.773438 7.691406 6.425781 Z M 7.691406 6.425781 " fill-opacity="1" fill-rule="nonzero"/><path fill="#d12e27" d="M 5.039062 7.5625 C 4.886719 7.351562 4.816406 7.117188 4.835938 6.855469 C 4.855469 6.59375 4.957031 6.367188 5.136719 6.179688 C 5.511719 5.789062 6.046875 5.765625 6.359375 6.136719 C 6.511719 6.347656 6.578125 6.585938 6.558594 6.84375 C 6.542969 7.105469 6.441406 7.332031 6.257812 7.519531 C 5.890625 7.910156 5.34375 7.929688 5.039062 7.5625 Z M 5.039062 7.5625 " fill-opacity="1" fill-rule="nonzero"/><path fill="#e13c30" d="M 5.179688 7.117188 C 4.976562 6.878906 5.027344 6.453125 5.289062 6.175781 C 5.550781 5.898438 5.925781 5.855469 6.125 6.097656 C 6.328125 6.335938 6.277344 6.757812 6.015625 7.039062 C 5.753906 7.316406 5.378906 7.367188 5.179688 7.117188 Z M 5.179688 7.117188 " fill-opacity="1" fill-rule="nonzero"/><path fill="#ffffff" d="M 5.484375 6.160156 C 5.503906 6.085938 5.613281 6.039062 5.726562 6.050781 C 5.839844 6.066406 5.914062 6.136719 5.894531 6.210938 C 5.875 6.285156 5.765625 6.335938 5.652344 6.320312 C 5.535156 6.304688 5.460938 6.234375 5.484375 6.160156 Z M 5.484375 6.160156 " fill-opacity="1" fill-rule="nonzero"/><path fill="#d12e27" d="M 4.292969 8.824219 C 3.886719 8.589844 3.761719 8.003906 4.007812 7.503906 C 4.253906 7.007812 4.78125 6.800781 5.1875 7.035156 C 5.589844 7.269531 5.71875 7.855469 5.46875 8.351562 C 5.222656 8.847656 4.695312 9.058594 4.292969 8.824219 Z M 4.292969 8.824219 " fill-opacity="1" fill-rule="nonzero"/><path fill="#e13c30" d="M 4.308594 8.359375 C 4.046875 8.210938 3.980469 7.792969 4.160156 7.445312 C 4.335938 7.09375 4.691406 6.925781 4.953125 7.066406 C 5.214844 7.210938 5.28125 7.632812 5.105469 7.984375 C 4.929688 8.332031 4.570312 8.511719 4.308594 8.359375 Z M 4.308594 8.359375 " fill-opacity="1" fill-rule="nonzero"/><path fill="#ffffff" d="M 4.34375 7.367188 C 4.34375 7.289062 4.4375 7.207031 4.554688 7.175781 C 4.667969 7.148438 4.761719 7.191406 4.761719 7.265625 C 4.761719 7.339844 4.667969 7.429688 4.554688 7.453125 C 4.4375 7.480469 4.34375 7.445312 4.34375 7.367188 Z M 4.34375 7.367188 " fill-opacity="1" fill-rule="nonzero"/><path fill="#d12e27" d="M 5.277344 8.011719 C 5.265625 7.738281 5.339844 7.492188 5.507812 7.273438 C 5.675781 7.054688 5.890625 6.914062 6.160156 6.855469 C 6.664062 6.773438 7.089844 7.15625 7.117188 7.710938 C 7.132812 7.988281 7.054688 8.234375 6.886719 8.453125 C 6.722656 8.675781 6.503906 8.8125 6.238281 8.871094 C 6.113281 8.890625 5.992188 8.882812 5.875 8.847656 C 5.757812 8.8125 5.652344 8.75 5.558594 8.667969 C 5.464844 8.585938 5.394531 8.488281 5.34375 8.371094 C 5.296875 8.257812 5.273438 8.136719 5.277344 8.011719 Z M 5.277344 8.011719 " fill-opacity="1" fill-rule="nonzero"/><path fill="#e13c30" d="M 5.644531 7.722656 C 5.644531 7.535156 5.703125 7.371094 5.824219 7.230469 C 5.945312 7.085938 6.09375 7 6.277344 6.96875 C 6.359375 6.949219 6.441406 6.949219 6.527344 6.96875 C 6.609375 6.988281 6.683594 7.023438 6.75 7.074219 C 6.816406 7.128906 6.867188 7.191406 6.90625 7.269531 C 6.945312 7.347656 6.964844 7.425781 6.964844 7.511719 C 6.964844 7.699219 6.902344 7.863281 6.785156 8.003906 C 6.664062 8.148438 6.515625 8.234375 6.332031 8.265625 C 6.25 8.285156 6.167969 8.285156 6.085938 8.265625 C 6 8.25 5.925781 8.214844 5.859375 8.160156 C 5.792969 8.109375 5.742188 8.042969 5.703125 7.964844 C 5.664062 7.890625 5.644531 7.808594 5.644531 7.722656 Z M 5.644531 7.722656 " fill-opacity="1" fill-rule="nonzero"/><path fill="#ffffff" d="M 6.429688 7.097656 C 6.488281 7.046875 6.601562 7.082031 6.679688 7.175781 C 6.761719 7.273438 6.777344 7.390625 6.714844 7.441406 C 6.65625 7.492188 6.542969 7.457031 6.464844 7.363281 C 6.386719 7.265625 6.371094 7.148438 6.429688 7.097656 Z M 6.429688 7.097656 " fill-opacity="1" fill-rule="nonzero"/><path fill="#168355" d="M 84.785156 9.796875 C 84.570312 11.054688 84.101562 11.992188 83.742188 11.886719 C 83.378906 11.777344 83.257812 10.675781 83.476562 9.417969 C 83.691406 8.15625 84.160156 7.21875 84.519531 7.324219 C 84.882812 7.425781 85 8.535156 84.785156 9.796875 Z M 84.785156 9.796875 " fill-opacity="1" fill-rule="nonzero"/><path fill="#168355" d="M 83.824219 9.316406 C 82.984375 10.230469 82.070312 10.761719 81.785156 10.503906 C 81.5 10.246094 81.945312 9.296875 82.785156 8.382812 C 83.625 7.46875 84.539062 6.941406 84.824219 7.199219 C 85.109375 7.457031 84.652344 8.40625 83.824219 9.316406 Z M 83.824219 9.316406 " fill-opacity="1" fill-rule="nonzero"/><path fill="#168355" d="M 82.867188 8.726562 C 81.628906 9.078125 80.507812 9.085938 80.363281 8.738281 C 80.21875 8.394531 81.109375 7.828125 82.347656 7.476562 C 83.582031 7.125 84.707031 7.117188 84.851562 7.464844 C 84.992188 7.808594 84.105469 8.371094 82.867188 8.726562 Z M 82.867188 8.726562 " fill-opacity="1" fill-rule="nonzero"/><path fill="#168355" d="M 86.511719 8.128906 C 87.421875 8.671875 88.070312 9.3125 87.960938 9.558594 C 87.851562 9.800781 87.027344 9.558594 86.113281 9.019531 C 85.199219 8.484375 84.558594 7.839844 84.667969 7.59375 C 84.777344 7.347656 85.605469 7.585938 86.511719 8.128906 Z M 86.511719 8.128906 " fill-opacity="1" fill-rule="nonzero"/><path fill="#168355" d="M 86.0625 8.730469 C 86.65625 9.644531 86.960938 10.503906 86.742188 10.644531 C 86.523438 10.785156 85.875 10.160156 85.28125 9.25 C 84.6875 8.335938 84.386719 7.476562 84.601562 7.332031 C 84.816406 7.191406 85.476562 7.816406 86.0625 8.730469 Z M 86.0625 8.730469 " fill-opacity="1" fill-rule="nonzero"/><path fill="#168355" d="M 85.542969 9.277344 C 85.6875 10.332031 85.585938 11.191406 85.320312 11.199219 C 85.050781 11.203125 84.71875 10.355469 84.570312 9.300781 C 84.425781 8.246094 84.53125 7.386719 84.796875 7.382812 C 85.066406 7.375 85.402344 8.222656 85.542969 9.277344 Z M 85.542969 9.277344 " fill-opacity="1" fill-rule="nonzero"/><path fill="#168355" d="M 81.65625 6.835938 C 80.613281 6.15625 79.921875 5.328125 80.109375 4.996094 C 80.296875 4.660156 81.289062 4.9375 82.332031 5.617188 C 83.375 6.296875 84.0625 7.125 83.878906 7.457031 C 83.691406 7.792969 82.703125 7.515625 81.65625 6.835938 Z M 81.65625 6.835938 " fill-opacity="1" fill-rule="nonzero"/><path fill="#168355" d="M 82.328125 6.007812 C 81.769531 4.808594 81.542969 3.675781 81.84375 3.472656 C 82.148438 3.273438 82.851562 4.078125 83.421875 5.277344 C 83.996094 6.472656 84.210938 7.605469 83.910156 7.808594 C 83.609375 8.007812 82.902344 7.203125 82.328125 6.007812 Z M 82.328125 6.007812 " fill-opacity="1" fill-rule="nonzero"/><g clip-path="url(#b63100bf2c)"><path fill="#168355" d="M 83.097656 5.246094 C 83.121094 3.839844 83.417969 2.679688 83.753906 2.65625 C 84.09375 2.636719 84.351562 3.757812 84.328125 5.164062 C 84.304688 6.570312 84.007812 7.726562 83.671875 7.742188 C 83.332031 7.757812 83.078125 6.648438 83.097656 5.246094 Z M 83.097656 5.246094 " fill-opacity="1" fill-rule="nonzero"/></g><g clip-path="url(#cd4343440b)"><path fill="#168355" d="M 84.550781 5.007812 C 85.03125 3.671875 85.671875 2.683594 85.992188 2.804688 C 86.308594 2.921875 86.167969 4.105469 85.683594 5.4375 C 85.199219 6.773438 84.5625 7.761719 84.246094 7.644531 C 83.925781 7.527344 84.070312 6.34375 84.550781 5.007812 Z M 84.550781 5.007812 " fill-opacity="1" fill-rule="nonzero"/></g><path fill="#168355" d="M 85.347656 5.542969 C 86.328125 4.601562 87.296875 4.054688 87.503906 4.335938 C 87.710938 4.621094 87.082031 5.621094 86.097656 6.570312 C 85.113281 7.523438 84.148438 8.058594 83.941406 7.777344 C 83.734375 7.492188 84.363281 6.492188 85.347656 5.542969 Z M 85.347656 5.542969 " fill-opacity="1" fill-rule="nonzero"/><g clip-path="url(#08ebae87a2)"><path fill="#168355" d="M 86.089844 6.203125 C 87.320312 5.859375 88.363281 5.886719 88.417969 6.257812 C 88.472656 6.628906 87.523438 7.207031 86.292969 7.546875 C 85.066406 7.890625 84.023438 7.863281 83.96875 7.492188 C 83.914062 7.121094 84.863281 6.542969 86.089844 6.203125 Z M 86.089844 6.203125 " fill-opacity="1" fill-rule="nonzero"/></g><path fill="#d12e27" d="M 83.433594 7.332031 C 83.28125 7.121094 83.214844 6.886719 83.230469 6.625 C 83.25 6.363281 83.351562 6.136719 83.535156 5.953125 C 83.898438 5.558594 84.445312 5.539062 84.753906 5.90625 C 84.90625 6.117188 84.976562 6.355469 84.957031 6.617188 C 84.9375 6.878906 84.835938 7.101562 84.65625 7.289062 C 84.289062 7.683594 83.746094 7.703125 83.433594 7.332031 Z M 83.433594 7.332031 " fill-opacity="1" fill-rule="nonzero"/><path fill="#e13c30" d="M 83.578125 6.886719 C 83.378906 6.648438 83.425781 6.222656 83.691406 5.945312 C 83.953125 5.667969 84.328125 5.625 84.527344 5.863281 C 84.730469 6.105469 84.679688 6.527344 84.417969 6.804688 C 84.15625 7.085938 83.777344 7.125 83.578125 6.886719 Z M 83.578125 6.886719 " fill-opacity="1" fill-rule="nonzero"/><path fill="#ffffff" d="M 83.882812 5.933594 C 83.902344 5.855469 84.011719 5.808594 84.128906 5.820312 C 84.242188 5.835938 84.3125 5.90625 84.296875 5.980469 C 84.242188 6.082031 84.160156 6.117188 84.050781 6.09375 C 83.9375 6.078125 83.863281 6.007812 83.882812 5.933594 Z M 83.882812 5.933594 " fill-opacity="1" fill-rule="nonzero"/><path fill="#d12e27" d="M 82.703125 8.59375 C 82.296875 8.363281 82.171875 7.773438 82.417969 7.273438 C 82.667969 6.777344 83.195312 6.574219 83.597656 6.804688 C 84 7.035156 84.128906 7.628906 83.882812 8.121094 C 83.632812 8.617188 83.097656 8.828125 82.703125 8.59375 Z M 82.703125 8.59375 " fill-opacity="1" fill-rule="nonzero"/><path fill="#e13c30" d="M 82.703125 8.128906 C 82.441406 7.980469 82.375 7.566406 82.550781 7.214844 C 82.730469 6.863281 83.085938 6.695312 83.347656 6.839844 C 83.609375 6.980469 83.675781 7.402344 83.5 7.753906 C 83.320312 8.105469 82.972656 8.28125 82.703125 8.128906 Z M 82.703125 8.128906 " fill-opacity="1" fill-rule="nonzero"/><path fill="#ffffff" d="M 82.742188 7.136719 C 82.742188 7.0625 82.839844 6.976562 82.953125 6.949219 C 83.066406 6.921875 83.164062 6.960938 83.164062 7.039062 C 83.164062 7.113281 83.070312 7.199219 82.953125 7.226562 C 82.835938 7.253906 82.742188 7.214844 82.742188 7.136719 Z M 82.742188 7.136719 " fill-opacity="1" fill-rule="nonzero"/><path fill="#d12e27" d="M 83.675781 7.785156 C 83.664062 7.507812 83.742188 7.261719 83.90625 7.046875 C 84.070312 6.828125 84.285156 6.6875 84.550781 6.628906 C 84.671875 6.609375 84.792969 6.617188 84.910156 6.65625 C 85.027344 6.691406 85.132812 6.75 85.222656 6.832031 C 85.316406 6.914062 85.386719 7.011719 85.433594 7.125 C 85.484375 7.238281 85.507812 7.359375 85.503906 7.480469 C 85.515625 7.757812 85.441406 8.003906 85.277344 8.222656 C 85.109375 8.441406 84.894531 8.582031 84.628906 8.640625 C 84.507812 8.65625 84.386719 8.648438 84.269531 8.613281 C 84.152344 8.574219 84.050781 8.515625 83.957031 8.433594 C 83.867188 8.351562 83.796875 8.253906 83.746094 8.140625 C 83.699219 8.027344 83.675781 7.90625 83.675781 7.785156 Z M 83.675781 7.785156 " fill-opacity="1" fill-rule="nonzero"/><path fill="#e13c30" d="M 84.046875 7.492188 C 84.046875 7.308594 84.105469 7.144531 84.226562 7 C 84.34375 6.859375 84.496094 6.773438 84.679688 6.742188 C 84.851562 6.703125 85.007812 6.738281 85.148438 6.851562 C 85.289062 6.960938 85.359375 7.105469 85.363281 7.285156 C 85.367188 7.472656 85.304688 7.636719 85.1875 7.777344 C 85.066406 7.921875 84.914062 8.007812 84.730469 8.039062 C 84.558594 8.074219 84.402344 8.039062 84.261719 7.925781 C 84.125 7.816406 84.050781 7.671875 84.046875 7.492188 Z M 84.046875 7.492188 " fill-opacity="1" fill-rule="nonzero"/><path fill="#ffffff" d="M 84.832031 6.867188 C 84.890625 6.816406 85.003906 6.851562 85.082031 6.949219 C 85.160156 7.042969 85.175781 7.164062 85.117188 7.214844 C 85.0625 7.265625 84.945312 7.226562 84.867188 7.132812 C 84.785156 7.035156 84.769531 6.917969 84.832031 6.867188 Z M 84.832031 6.867188 " fill-opacity="1" fill-rule="nonzero"/><path fill="#f63a32" d="M 8.210938 19.277344 C 7.582031 16.625 11.660156 11.132812 13.398438 9.460938 C 14.269531 8.625 15.140625 8.210938 15.84375 8.386719 C 16.546875 8.5625 18.433594 9.996094 19.507812 11.585938 C 19.847656 12.09375 16.757812 11.542969 16.757812 11.542969 C 16.3125 13.371094 18.667969 19.027344 18.667969 19.027344 C 18.667969 19.027344 8.359375 19.878906 8.210938 19.277344 Z M 8.210938 19.277344 " fill-opacity="1" fill-rule="nonzero"/><path fill="#ffffff" d="M 18.746094 10.414062 C 18.601562 10.699219 18.625 10.972656 18.816406 11.226562 C 18.582031 11.179688 18.40625 11.261719 18.292969 11.476562 C 18.214844 11.632812 18.191406 11.796875 18.222656 11.96875 C 18.253906 12.144531 18.335938 12.289062 18.46875 12.40625 C 18.53125 12.460938 18.605469 12.5 18.683594 12.519531 C 18.582031 12.839844 18.65625 13.113281 18.90625 13.335938 C 18.960938 13.390625 19.027344 13.425781 19.097656 13.449219 C 19.171875 13.46875 19.246094 13.476562 19.320312 13.460938 C 19.398438 13.449219 19.464844 13.417969 19.527344 13.375 C 19.589844 13.328125 19.636719 13.269531 19.671875 13.203125 C 19.699219 13.144531 19.722656 13.082031 19.734375 13.015625 C 19.769531 13.070312 19.8125 13.121094 19.863281 13.167969 C 19.917969 13.21875 19.984375 13.257812 20.054688 13.28125 C 20.128906 13.304688 20.203125 13.308594 20.277344 13.296875 C 20.355469 13.28125 20.421875 13.253906 20.484375 13.207031 C 20.546875 13.164062 20.59375 13.105469 20.628906 13.039062 C 20.710938 12.878906 20.734375 12.714844 20.703125 12.542969 C 20.667969 12.371094 20.585938 12.226562 20.457031 12.109375 C 20.4375 12.09375 20.414062 12.078125 20.390625 12.066406 C 20.503906 12.105469 20.617188 12.101562 20.726562 12.058594 C 20.835938 12.011719 20.917969 11.9375 20.972656 11.832031 C 21.050781 11.671875 21.074219 11.507812 21.042969 11.335938 C 21.011719 11.164062 20.929688 11.019531 20.800781 10.902344 C 20.710938 10.824219 20.609375 10.78125 20.492188 10.769531 C 20.597656 10.445312 20.527344 10.167969 20.273438 9.941406 C 20.21875 9.886719 20.15625 9.851562 20.082031 9.828125 C 20.007812 9.804688 19.933594 9.800781 19.859375 9.8125 C 19.78125 9.828125 19.714844 9.855469 19.652344 9.902344 C 19.589844 9.945312 19.542969 10.003906 19.507812 10.070312 C 19.480469 10.121094 19.460938 10.171875 19.449219 10.226562 C 19.328125 10.144531 19.195312 10.121094 19.054688 10.15625 C 18.914062 10.195312 18.8125 10.28125 18.746094 10.414062 Z M 18.746094 10.414062 " fill-opacity="1" fill-rule="nonzero"/><path fill="#ffffff" d="M 8.234375 17.972656 C 9.882812 17.960938 10.910156 18.703125 13.550781 18.484375 C 16.722656 18.226562 16.484375 17.777344 17.980469 17.449219 C 18.847656 17.261719 19.066406 18.910156 18.582031 19.203125 C 17.726562 19.675781 16.820312 20.019531 15.867188 20.230469 C 13.398438 20.824219 10.542969 20.683594 8.4375 19.855469 C 7.398438 19.453125 7.652344 17.976562 8.234375 17.972656 Z M 8.234375 17.972656 " fill-opacity="1" fill-rule="nonzero"/><path fill="#9c6150" d="M 12.808594 5.152344 L 13.125 5.0625 C 13.414062 4.976562 13.730469 5.203125 13.828125 5.558594 L 14.898438 9.382812 C 15 9.742188 14.847656 10.097656 14.558594 10.179688 L 14.242188 10.269531 C 13.953125 10.351562 13.636719 10.128906 13.535156 9.769531 L 12.464844 5.949219 C 12.367188 5.589844 12.519531 5.230469 12.808594 5.152344 Z M 12.808594 5.152344 " fill-opacity="1" fill-rule="nonzero"/><path fill="#f63a32" d="M 47.113281 11.046875 L 50.394531 24.226562 C 50.394531 24.347656 47.089844 25.960938 43.746094 25.964844 C 39.851562 25.964844 35.835938 24.332031 35.832031 24.191406 L 38.207031 11.265625 C 38.199219 10.996094 47.105469 10.785156 47.113281 11.046875 Z M 47.113281 11.046875 " fill-opacity="1" fill-rule="nonzero"/><g clip-path="url(#2987df7994)"><path fill="#ffffff" d="M 36.019531 23.371094 C 36.707031 23.183594 39.496094 23.9375 43.113281 23.957031 C 46.015625 23.96875 48.109375 22.859375 49.941406 22.78125 C 50.542969 22.753906 51.136719 24.363281 49.988281 25.015625 C 47.441406 26.457031 38.46875 26.582031 36.171875 25.625 C 34.953125 25.113281 35.152344 23.597656 36.019531 23.371094 Z M 36.019531 23.371094 " fill-opacity="1" fill-rule="nonzero"/></g><path fill="#f63a32" d="M 47.347656 10.492188 L 45.867188 12.03125 C 45.796875 12.101562 45.765625 12.1875 45.773438 12.285156 C 45.777344 12.386719 45.820312 12.46875 45.898438 12.527344 L 53.019531 19.039062 C 53.175781 19.167969 55.699219 15.5 55.542969 15.371094 L 47.878906 10.476562 C 47.800781 10.410156 47.710938 10.378906 47.609375 10.382812 C 47.507812 10.386719 47.421875 10.421875 47.347656 10.492188 Z M 47.347656 10.492188 " fill-opacity="1" fill-rule="nonzero"/><path fill="#ffffff" d="M 52.625 18.816406 C 52.714844 18.527344 53.5 17.875 53.949219 17.058594 C 54.445312 16.171875 54.617188 15.136719 54.820312 14.894531 C 54.972656 14.714844 56.195312 15.269531 56.082031 16.230469 C 56.003906 16.855469 55.273438 19.164062 53.894531 20.082031 C 53.390625 20.421875 52.542969 19.082031 52.625 18.816406 Z M 52.625 18.816406 " fill-opacity="1" fill-rule="nonzero"/><path fill="#f63a32" d="M 37.8125 10.769531 L 39.375 12.21875 C 39.453125 12.285156 39.488281 12.367188 39.488281 12.46875 C 39.488281 12.570312 39.453125 12.652344 39.375 12.71875 L 32.636719 19.628906 C 32.484375 19.769531 29.753906 16.253906 29.90625 16.117188 L 37.273438 10.769531 C 37.351562 10.703125 37.441406 10.667969 37.542969 10.667969 C 37.644531 10.667969 37.734375 10.703125 37.8125 10.769531 Z M 37.8125 10.769531 " fill-opacity="1" fill-rule="nonzero"/><path fill="#ffffff" d="M 33.019531 19.386719 C 32.914062 19.105469 32.085938 18.492188 31.597656 17.710938 C 31.050781 16.855469 30.820312 15.828125 30.601562 15.601562 C 30.445312 15.433594 29.25 16.054688 29.421875 17.007812 C 29.535156 17.628906 30.398438 19.890625 31.824219 20.730469 C 32.347656 21.035156 33.117188 19.652344 33.019531 19.386719 Z M 33.019531 19.386719 " fill-opacity="1" fill-rule="nonzero"/><path fill="#ffffff" d="M 37.792969 9.089844 C 39.398438 9.179688 39.980469 9.980469 42.5625 9.84375 C 45.675781 9.671875 45.394531 9.042969 46.867188 8.65625 C 47.722656 8.433594 48.019531 10.164062 47.535156 10.566406 C 45.316406 12.417969 40.277344 13.046875 37.414062 11.128906 C 36.410156 10.445312 37.226562 9.058594 37.792969 9.089844 Z M 37.792969 9.089844 " fill-opacity="1" fill-rule="nonzero"/><path fill="#271615" d="M 36.808594 18.804688 C 36.808594 18.804688 40.355469 19.5 43.375 19.371094 C 45.273438 19.269531 47.121094 18.898438 48.910156 18.253906 L 49.238281 19.519531 C 47.339844 20.1875 45.382812 20.542969 43.371094 20.585938 C 40.226562 20.632812 36.566406 20.136719 36.566406 20.136719 C 36.539062 20.324219 36.808594 18.804688 36.808594 18.804688 Z M 36.808594 18.804688 " fill-opacity="1" fill-rule="nonzero"/><path fill="#febf29" d="M 42.121094 18.699219 C 42.035156 18.703125 41.964844 18.738281 41.910156 18.800781 C 41.855469 18.863281 41.828125 18.9375 41.835938 19.023438 L 41.890625 20.921875 C 41.886719 21.007812 41.917969 21.082031 41.976562 21.140625 C 42.035156 21.203125 42.105469 21.234375 42.191406 21.234375 L 44.097656 21.179688 C 44.179688 21.171875 44.25 21.140625 44.304688 21.074219 C 44.359375 21.011719 44.386719 20.9375 44.378906 20.851562 L 44.324219 18.953125 C 44.324219 18.867188 44.296875 18.792969 44.238281 18.734375 C 44.179688 18.671875 44.105469 18.640625 44.023438 18.640625 Z M 42.449219 19.171875 L 43.726562 19.132812 C 43.851562 19.132812 43.917969 19.195312 43.925781 19.324219 L 43.960938 20.5 C 43.96875 20.632812 43.90625 20.703125 43.773438 20.699219 L 42.496094 20.738281 C 42.363281 20.75 42.292969 20.6875 42.292969 20.550781 L 42.261719 19.375 C 42.257812 19.246094 42.320312 19.179688 42.449219 19.171875 Z M 42.449219 19.171875 " fill-opacity="1" fill-rule="nonzero"/><path fill="#2e2020" d="M 42.363281 13.929688 C 42.367188 13.820312 42.414062 13.726562 42.492188 13.652344 C 42.574219 13.578125 42.667969 13.542969 42.78125 13.546875 C 42.890625 13.550781 42.980469 13.589844 43.058594 13.671875 C 43.132812 13.75 43.171875 13.84375 43.171875 13.957031 C 43.171875 14.066406 43.132812 14.160156 43.054688 14.238281 C 42.980469 14.320312 42.886719 14.359375 42.777344 14.363281 C 42.660156 14.359375 42.5625 14.316406 42.480469 14.230469 C 42.398438 14.148438 42.359375 14.046875 42.363281 13.929688 Z M 42.363281 13.929688 " fill-opacity="1" fill-rule="nonzero"/><path fill="#2e2020" d="M 42.507812 16.621094 C 42.515625 16.511719 42.558594 16.417969 42.640625 16.34375 C 42.722656 16.273438 42.816406 16.238281 42.925781 16.242188 C 43.035156 16.246094 43.125 16.285156 43.203125 16.363281 C 43.277344 16.445312 43.316406 16.539062 43.316406 16.648438 C 43.316406 16.757812 43.277344 16.851562 43.199219 16.929688 C 43.125 17.007812 43.03125 17.050781 42.925781 17.054688 C 42.808594 17.050781 42.710938 17.007812 42.628906 16.921875 C 42.546875 16.839844 42.507812 16.738281 42.507812 16.621094 Z M 42.507812 16.621094 " fill-opacity="1" fill-rule="nonzero"/><path fill="#9c6150" d="M 42.578125 5.792969 L 42.90625 5.792969 C 43.203125 5.792969 43.449219 6.09375 43.445312 6.464844 L 43.445312 10.4375 C 43.445312 10.816406 43.199219 11.109375 42.902344 11.109375 L 42.5625 11.109375 C 42.261719 11.109375 42.019531 10.808594 42.019531 10.433594 L 42.03125 6.464844 C 42.03125 6.089844 42.277344 5.789062 42.578125 5.792969 Z M 42.578125 5.792969 " fill-opacity="1" fill-rule="nonzero"/><path fill="#f63a32" d="M 66.878906 10.601562 C 66.660156 10.625 64.441406 22.375 64.441406 22.375 C 64.398438 22.59375 69.898438 23.777344 69.941406 23.554688 C 69.941406 23.554688 71.621094 18.832031 71.992188 17.816406 C 72.367188 16.804688 74.015625 16.164062 74.945312 17.570312 C 75.316406 18.125 77.585938 22.863281 77.585938 22.863281 C 77.667969 23.078125 83.144531 20.921875 83.058594 20.710938 C 83.058594 20.710938 78.453125 9.472656 78.300781 9.488281 Z M 66.878906 10.601562 " fill-opacity="1" fill-rule="nonzero"/><path fill="#ffffff" d="M 77.414062 22.390625 C 78.207031 22.203125 78.796875 22.425781 80.28125 21.648438 C 82.070312 20.707031 81.824219 19.78125 82.617188 19.605469 C 83.410156 19.429688 83.605469 20.503906 83.441406 20.949219 C 82.695312 22.988281 79.894531 24.777344 77.621094 23.984375 C 76.824219 23.707031 77.058594 22.472656 77.414062 22.390625 Z M 77.414062 22.390625 " fill-opacity="1" fill-rule="nonzero"/><path fill="#ffffff" d="M 70.089844 23.050781 C 69.078125 22.859375 68.527344 23.277344 66.949219 22.722656 C 65.042969 22.058594 64.847656 21.332031 64.566406 21.347656 C 63.820312 21.382812 63.703125 22.398438 63.941406 22.824219 C 64.722656 24.238281 66.324219 25.039062 68.046875 25.101562 C 68.714844 25.140625 69.34375 24.996094 69.933594 24.675781 C 70.671875 24.269531 70.449219 23.117188 70.089844 23.050781 Z M 70.089844 23.050781 " fill-opacity="1" fill-rule="nonzero"/><path fill="#ffffff" d="M 78.734375 10.492188 C 78.210938 10.792969 75.59375 11.320312 72.546875 11.433594 C 70.097656 11.523438 67.375 11.734375 66.726562 11.554688 C 66.183594 11.398438 66.355469 9.757812 66.597656 9.628906 C 66.914062 9.449219 71.078125 9.429688 72.476562 9.25 C 75.65625 8.871094 76.730469 8.820312 78.222656 8.546875 C 78.667969 8.464844 79.101562 10.28125 78.734375 10.492188 Z M 78.734375 10.492188 " fill-opacity="1" fill-rule="nonzero"/><path fill="#2e2020" d="M 72.585938 12.246094 C 72.589844 12.152344 72.625 12.074219 72.6875 12.007812 C 72.753906 11.945312 72.832031 11.910156 72.921875 11.910156 C 73.015625 11.90625 73.09375 11.9375 73.160156 12 C 73.230469 12.0625 73.265625 12.140625 73.269531 12.234375 C 73.277344 12.328125 73.25 12.40625 73.1875 12.476562 C 73.128906 12.546875 73.050781 12.589844 72.960938 12.597656 C 72.863281 12.597656 72.777344 12.5625 72.707031 12.496094 C 72.632812 12.429688 72.59375 12.34375 72.585938 12.246094 Z M 72.585938 12.246094 " fill-opacity="1" fill-rule="nonzero"/><path fill="#2e2020" d="M 72.71875 13.984375 C 72.71875 13.890625 72.753906 13.8125 72.820312 13.746094 C 72.882812 13.683594 72.960938 13.648438 73.054688 13.648438 C 73.144531 13.644531 73.226562 13.675781 73.292969 13.738281 C 73.359375 13.800781 73.394531 13.878906 73.402344 13.972656 C 73.40625 14.066406 73.378906 14.144531 73.320312 14.214844 C 73.257812 14.285156 73.183594 14.324219 73.09375 14.335938 C 72.992188 14.335938 72.90625 14.304688 72.832031 14.238281 C 72.761719 14.167969 72.722656 14.085938 72.71875 13.984375 Z M 72.71875 13.984375 " fill-opacity="1" fill-rule="nonzero"/><path fill="#9c6150" d="M 71.34375 5.019531 L 71.664062 4.960938 C 71.960938 4.90625 72.257812 5.148438 72.324219 5.527344 L 73.054688 9.429688 C 73.125 9.792969 72.941406 10.136719 72.644531 10.195312 L 72.324219 10.253906 C 72.027344 10.3125 71.734375 10.066406 71.664062 9.6875 L 70.941406 5.785156 C 70.863281 5.421875 71.050781 5.078125 71.34375 5.019531 Z M 71.34375 5.019531 " fill-opacity="1" fill-rule="nonzero"/><path fill="#2e2020" d="M 61.898438 13.890625 C 62.085938 13.140625 62.433594 11.414062 62.101562 10.789062 C 61.769531 10.160156 60.953125 10.15625 60.234375 9.945312 C 59.609375 9.757812 58.605469 9.296875 58.058594 9.558594 C 57.367188 9.894531 56.972656 11.539062 56.753906 12.382812 C 56.367188 13.890625 57.210938 14.839844 58.621094 15.257812 C 60.027344 15.675781 61.511719 15.398438 61.898438 13.890625 Z M 61.898438 13.890625 " fill-opacity="0.9882" fill-rule="nonzero"/><path fill="#2e2020" d="M 63.351562 11.84375 C 62.550781 11.105469 61.339844 10.230469 60.921875 10.574219 C 60.507812 10.917969 61.050781 12.351562 61.855469 13.085938 C 62.660156 13.824219 63.386719 13.917969 63.722656 13.503906 C 64.007812 13.152344 64.148438 12.578125 63.351562 11.84375 Z M 63.351562 11.84375 " fill-opacity="0.9882" fill-rule="nonzero"/><path fill="#ffffff" d="M 61.515625 8.800781 C 61.886719 8.871094 62.160156 9.277344 62.132812 9.730469 C 62.148438 9.730469 62.167969 9.730469 62.1875 9.730469 C 62.558594 9.796875 62.828125 10.21875 62.777344 10.671875 C 62.726562 11.125 62.378906 11.445312 62.003906 11.378906 C 61.90625 11.359375 61.816406 11.320312 61.738281 11.257812 C 61.628906 11.417969 61.484375 11.53125 61.308594 11.597656 C 61.128906 11.667969 60.949219 11.679688 60.761719 11.636719 C 60.550781 11.601562 60.367188 11.515625 60.203125 11.375 C 60.046875 11.511719 59.863281 11.5625 59.660156 11.523438 C 59.4375 11.480469 59.265625 11.363281 59.152344 11.164062 C 59.039062 11.25 58.914062 11.28125 58.777344 11.261719 C 58.460938 11.207031 58.242188 10.847656 58.253906 10.445312 C 58.144531 10.496094 58.027344 10.511719 57.902344 10.492188 C 57.511719 10.421875 57.234375 9.988281 57.289062 9.519531 C 57.34375 9.050781 57.699219 8.726562 58.09375 8.792969 C 58.175781 8.808594 58.253906 8.839844 58.324219 8.886719 C 58.4375 8.574219 58.699219 8.371094 58.964844 8.421875 C 59.230469 8.488281 59.390625 8.660156 59.449219 8.925781 C 59.683594 8.75 59.945312 8.6875 60.230469 8.738281 C 60.480469 8.789062 60.691406 8.914062 60.859375 9.105469 C 61.011719 8.859375 61.230469 8.757812 61.515625 8.800781 Z M 61.515625 8.800781 " fill-opacity="1" fill-rule="nonzero"/><path fill="#9c6150" d="M 60.75 5.433594 L 61.046875 5.484375 C 61.183594 5.519531 61.289062 5.601562 61.363281 5.726562 C 61.4375 5.851562 61.453125 5.984375 61.417969 6.125 L 60.835938 9.398438 C 60.820312 9.542969 60.753906 9.660156 60.644531 9.753906 C 60.53125 9.84375 60.402344 9.882812 60.261719 9.867188 L 59.972656 9.8125 C 59.835938 9.777344 59.730469 9.695312 59.65625 9.570312 C 59.582031 9.445312 59.566406 9.3125 59.597656 9.171875 L 60.179688 5.898438 C 60.195312 5.753906 60.261719 5.640625 60.371094 5.546875 C 60.484375 5.457031 60.609375 5.417969 60.75 5.433594 Z M 60.75 5.433594 " fill-opacity="1" fill-rule="nonzero"/><path fill="#2e2020" d="M 24.710938 13.957031 C 24.523438 13.203125 24.175781 11.480469 24.507812 10.855469 C 24.839844 10.226562 25.65625 10.222656 26.375 10.011719 C 27 9.824219 28.003906 9.363281 28.546875 9.632812 C 29.242188 9.96875 29.640625 11.613281 29.855469 12.460938 C 30.242188 13.964844 29.398438 14.90625 27.980469 15.335938 C 26.558594 15.761719 25.097656 15.460938 24.710938 13.957031 Z M 24.710938 13.957031 " fill-opacity="0.9882" fill-rule="nonzero"/><path fill="#2e2020" d="M 23.257812 11.90625 C 24.058594 11.171875 25.269531 10.292969 25.6875 10.636719 C 26.101562 10.980469 25.558594 12.410156 24.753906 13.148438 C 23.949219 13.886719 23.21875 13.980469 22.886719 13.566406 C 22.601562 13.214844 22.460938 12.636719 23.257812 11.90625 Z M 23.257812 11.90625 " fill-opacity="0.9882" fill-rule="nonzero"/><path fill="#ffffff" d="M 25.09375 8.871094 C 24.722656 8.9375 24.449219 9.347656 24.480469 9.800781 L 24.421875 9.800781 C 24.046875 9.867188 23.78125 10.292969 23.832031 10.742188 C 23.882812 11.191406 24.230469 11.515625 24.605469 11.449219 C 24.703125 11.429688 24.792969 11.390625 24.871094 11.328125 C 24.980469 11.488281 25.125 11.601562 25.300781 11.667969 C 25.480469 11.738281 25.660156 11.75 25.847656 11.707031 C 26.058594 11.671875 26.242188 11.582031 26.40625 11.445312 C 26.5625 11.582031 26.746094 11.632812 26.949219 11.59375 C 27.164062 11.550781 27.328125 11.433594 27.441406 11.242188 C 27.550781 11.324219 27.675781 11.355469 27.816406 11.339844 C 28.128906 11.28125 28.351562 10.925781 28.335938 10.523438 C 28.449219 10.574219 28.566406 10.589844 28.6875 10.570312 C 29.082031 10.5 29.355469 10.0625 29.304688 9.59375 C 29.253906 9.125 28.890625 8.800781 28.5 8.871094 C 28.417969 8.886719 28.339844 8.917969 28.269531 8.964844 C 28.15625 8.648438 27.894531 8.449219 27.625 8.496094 C 27.363281 8.566406 27.199219 8.734375 27.144531 9.003906 C 26.910156 8.828125 26.648438 8.761719 26.359375 8.816406 C 26.113281 8.859375 25.902344 8.976562 25.730469 9.160156 C 25.578125 8.929688 25.367188 8.832031 25.09375 8.871094 Z M 25.09375 8.871094 " fill-opacity="1" fill-rule="nonzero"/><path fill="#9c6150" d="M 25.859375 5.492188 L 25.570312 5.546875 C 25.433594 5.585938 25.328125 5.664062 25.253906 5.789062 C 25.179688 5.914062 25.164062 6.046875 25.199219 6.1875 L 25.777344 9.464844 C 25.796875 9.605469 25.859375 9.726562 25.972656 9.816406 C 26.082031 9.90625 26.210938 9.945312 26.355469 9.933594 L 26.640625 9.878906 C 26.78125 9.839844 26.886719 9.761719 26.960938 9.636719 C 27.03125 9.511719 27.050781 9.378906 27.015625 9.238281 L 26.433594 5.960938 C 26.417969 5.816406 26.355469 5.699219 26.242188 5.609375 C 26.128906 5.515625 26 5.480469 25.859375 5.492188 Z M 25.859375 5.492188 " fill-opacity="1" fill-rule="nonzero"/><path fill="#107148" d="M 20.160156 6.675781 C 19.804688 7.089844 19.714844 7.523438 19.972656 7.640625 C 20.230469 7.761719 20.71875 7.523438 21.066406 7.109375 C 21.414062 6.695312 22.042969 5.878906 21.84375 5.769531 C 21.644531 5.65625 20.503906 6.261719 20.160156 6.675781 Z M 20.160156 6.675781 " fill-opacity="1" fill-rule="nonzero"/><path fill="#107148" d="M 17.695312 6.660156 C 17.339844 7.074219 17.25 7.507812 17.507812 7.628906 C 17.765625 7.746094 18.257812 7.507812 18.601562 7.09375 C 18.949219 6.679688 19.578125 5.863281 19.378906 5.753906 C 19.179688 5.644531 18.050781 6.25 17.695312 6.660156 Z M 17.695312 6.660156 " fill-opacity="1" fill-rule="nonzero"/><path fill="#107148" d="M 24.757812 6.570312 C 24.402344 6.980469 24.316406 7.414062 24.570312 7.535156 C 24.828125 7.65625 25.320312 7.414062 25.667969 7.003906 C 26.015625 6.589844 26.644531 5.769531 26.441406 5.660156 C 26.242188 5.546875 25.113281 6.15625 24.757812 6.570312 Z M 24.757812 6.570312 " fill-opacity="1" fill-rule="nonzero"/><path fill="#107148" d="M 22.46875 6.78125 C 22.109375 7.195312 22.027344 7.628906 22.28125 7.746094 C 22.535156 7.863281 23.027344 7.628906 23.378906 7.214844 C 23.726562 6.796875 24.351562 5.984375 24.152344 5.871094 C 23.949219 5.761719 22.824219 6.367188 22.46875 6.78125 Z M 22.46875 6.78125 " fill-opacity="1" fill-rule="nonzero"/><path fill="#107148" d="M 31.773438 6.488281 C 31.417969 6.902344 31.332031 7.332031 31.585938 7.453125 C 31.84375 7.574219 32.332031 7.335938 32.683594 6.921875 C 33.03125 6.507812 33.660156 5.691406 33.457031 5.582031 C 33.253906 5.472656 32.128906 6.074219 31.773438 6.488281 Z M 31.773438 6.488281 " fill-opacity="1" fill-rule="nonzero"/><path fill="#107148" d="M 29.480469 6.699219 C 29.125 7.113281 29.039062 7.546875 29.296875 7.664062 C 29.550781 7.785156 30.042969 7.546875 30.390625 7.132812 C 30.742188 6.71875 31.367188 5.902344 31.164062 5.792969 C 30.964844 5.679688 29.835938 6.285156 29.480469 6.699219 Z M 29.480469 6.699219 " fill-opacity="1" fill-rule="nonzero"/><path fill="#107148" d="M 36.71875 6.453125 C 36.367188 6.867188 36.277344 7.300781 36.535156 7.421875 C 36.789062 7.539062 37.28125 7.300781 37.628906 6.886719 C 37.976562 6.472656 38.605469 5.65625 38.402344 5.542969 C 38.199219 5.433594 37.078125 6.046875 36.71875 6.453125 Z M 36.71875 6.453125 " fill-opacity="1" fill-rule="nonzero"/><path fill="#107148" d="M 34.429688 6.664062 C 34.074219 7.078125 33.988281 7.511719 34.242188 7.632812 C 34.5 7.75 34.988281 7.511719 35.339844 7.097656 C 35.6875 6.683594 36.316406 5.867188 36.113281 5.757812 C 35.910156 5.644531 34.785156 6.253906 34.429688 6.664062 Z M 34.429688 6.664062 " fill-opacity="1" fill-rule="nonzero"/><path fill="#107148" d="M 41.542969 6.558594 C 41.1875 6.972656 41.101562 7.40625 41.359375 7.527344 C 41.617188 7.644531 42.105469 7.40625 42.453125 6.992188 C 42.800781 6.578125 43.429688 5.761719 43.226562 5.652344 C 43.023438 5.542969 41.898438 6.144531 41.542969 6.558594 Z M 41.542969 6.558594 " fill-opacity="1" fill-rule="nonzero"/><path fill="#107148" d="M 39.25 6.769531 C 38.894531 7.183594 38.808594 7.617188 39.066406 7.738281 C 39.320312 7.855469 39.8125 7.617188 40.160156 7.203125 C 40.511719 6.789062 41.136719 5.972656 40.9375 5.863281 C 40.734375 5.75 39.609375 6.359375 39.25 6.769531 Z M 39.25 6.769531 " fill-opacity="1" fill-rule="nonzero"/><path fill="#107148" d="M 47.59375 6.671875 C 47.238281 7.085938 47.152344 7.519531 47.40625 7.636719 C 47.664062 7.757812 48.152344 7.519531 48.503906 7.105469 C 48.851562 6.691406 49.480469 5.875 49.277344 5.765625 C 49.074219 5.65625 47.949219 6.257812 47.59375 6.671875 Z M 47.59375 6.671875 " fill-opacity="1" fill-rule="nonzero"/><path fill="#107148" d="M 45.300781 6.882812 C 44.945312 7.296875 44.859375 7.730469 45.117188 7.847656 C 45.371094 7.96875 45.863281 7.730469 46.210938 7.316406 C 46.5625 6.902344 47.1875 6.085938 46.988281 5.976562 C 46.785156 5.863281 45.660156 6.472656 45.300781 6.882812 Z M 45.300781 6.882812 " fill-opacity="1" fill-rule="nonzero"/><path fill="#107148" d="M 53.003906 6.574219 C 52.648438 6.988281 52.5625 7.421875 52.816406 7.539062 C 53.074219 7.65625 53.5625 7.421875 53.910156 7.007812 C 54.257812 6.589844 54.886719 5.777344 54.679688 5.671875 C 54.476562 5.566406 53.359375 6.160156 53.003906 6.574219 Z M 53.003906 6.574219 " fill-opacity="1" fill-rule="nonzero"/><path fill="#107148" d="M 50.710938 6.785156 C 50.355469 7.199219 50.269531 7.632812 50.527344 7.75 C 50.78125 7.871094 51.273438 7.632812 51.621094 7.21875 C 51.972656 6.804688 52.597656 5.988281 52.398438 5.878906 C 52.195312 5.769531 51.070312 6.371094 50.710938 6.785156 Z M 50.710938 6.785156 " fill-opacity="1" fill-rule="nonzero"/><path fill="#107148" d="M 57.925781 6.4375 C 57.570312 6.851562 57.484375 7.285156 57.738281 7.40625 C 57.996094 7.527344 58.488281 7.285156 58.835938 6.871094 C 59.179688 6.460938 59.808594 5.640625 59.609375 5.53125 C 59.410156 5.417969 58.28125 6.023438 57.925781 6.4375 Z M 57.925781 6.4375 " fill-opacity="1" fill-rule="nonzero"/><path fill="#107148" d="M 55.632812 6.648438 C 55.277344 7.0625 55.191406 7.496094 55.445312 7.617188 C 55.703125 7.734375 56.191406 7.496094 56.539062 7.082031 C 56.886719 6.667969 57.511719 5.859375 57.3125 5.742188 C 57.113281 5.625 55.992188 6.234375 55.632812 6.648438 Z M 55.632812 6.648438 " fill-opacity="1" fill-rule="nonzero"/><path fill="#107148" d="M 65.203125 6.34375 C 64.847656 6.757812 64.757812 7.191406 65.015625 7.308594 C 65.273438 7.429688 65.765625 7.191406 66.113281 6.777344 C 66.457031 6.363281 67.085938 5.546875 66.886719 5.433594 C 66.6875 5.324219 65.558594 5.929688 65.203125 6.34375 Z M 65.203125 6.34375 " fill-opacity="1" fill-rule="nonzero"/><path fill="#107148" d="M 62.914062 6.554688 C 62.558594 6.96875 62.472656 7.402344 62.726562 7.523438 C 62.980469 7.640625 63.472656 7.402344 63.824219 6.988281 C 64.171875 6.574219 64.800781 5.757812 64.597656 5.648438 C 64.394531 5.539062 63.269531 6.140625 62.914062 6.554688 Z M 62.914062 6.554688 " fill-opacity="1" fill-rule="nonzero"/><path fill="#107148" d="M 70.007812 6.347656 C 69.652344 6.761719 69.566406 7.195312 69.820312 7.316406 C 70.078125 7.433594 70.566406 7.195312 70.917969 6.78125 C 71.265625 6.367188 71.894531 5.550781 71.691406 5.441406 C 71.488281 5.332031 70.355469 5.933594 70.007812 6.347656 Z M 70.007812 6.347656 " fill-opacity="1" fill-rule="nonzero"/><path fill="#107148" d="M 67.710938 6.558594 C 67.351562 6.972656 67.265625 7.40625 67.523438 7.527344 C 67.777344 7.644531 68.269531 7.40625 68.617188 6.992188 C 68.96875 6.578125 69.59375 5.761719 69.394531 5.652344 C 69.195312 5.539062 68.066406 6.148438 67.710938 6.558594 Z M 67.710938 6.558594 " fill-opacity="1" fill-rule="nonzero"/><path fill="#107148" d="M 76.890625 6.40625 C 76.535156 6.820312 76.445312 7.253906 76.703125 7.375 C 76.957031 7.492188 77.449219 7.253906 77.796875 6.839844 C 78.148438 6.425781 78.773438 5.609375 78.574219 5.5 C 78.371094 5.386719 77.246094 5.992188 76.890625 6.40625 Z M 76.890625 6.40625 " fill-opacity="1" fill-rule="nonzero"/><path fill="#107148" d="M 74.597656 6.613281 C 74.242188 7.023438 74.15625 7.457031 74.410156 7.578125 C 74.667969 7.699219 75.160156 7.460938 75.507812 7.046875 C 75.855469 6.632812 76.484375 5.8125 76.28125 5.703125 C 76.082031 5.59375 74.953125 6.207031 74.597656 6.613281 Z M 74.597656 6.613281 " fill-opacity="1" fill-rule="nonzero"/><path fill="#107148" d="M 79.433594 6.558594 C 79.078125 6.972656 78.988281 7.40625 79.246094 7.527344 C 79.503906 7.644531 79.992188 7.40625 80.339844 6.996094 C 80.6875 6.582031 81.316406 5.761719 81.117188 5.652344 C 80.917969 5.539062 79.789062 6.148438 79.433594 6.558594 Z M 79.433594 6.558594 " fill-opacity="1" fill-rule="nonzero"/><path fill="#107148" d="M 12.234375 6.558594 C 11.875 6.972656 11.789062 7.40625 12.046875 7.527344 C 12.300781 7.644531 12.792969 7.40625 13.140625 6.992188 C 13.492188 6.578125 14.117188 5.761719 13.917969 5.648438 C 13.714844 5.539062 12.589844 6.144531 12.234375 6.558594 Z M 12.234375 6.558594 " fill-opacity="1" fill-rule="nonzero"/><path fill="#107148" d="M 9.941406 6.769531 C 9.585938 7.183594 9.5 7.617188 9.757812 7.738281 C 10.011719 7.855469 10.503906 7.617188 10.851562 7.203125 C 11.199219 6.789062 11.828125 5.972656 11.625 5.863281 C 11.425781 5.75 10.296875 6.355469 9.941406 6.769531 Z M 9.941406 6.769531 " fill-opacity="1" fill-rule="nonzero"/><path fill="#168355" d="M 45.25 5.511719 C 45.757812 4.664062 46.367188 4.085938 46.613281 4.222656 C 46.863281 4.359375 46.644531 5.15625 46.128906 6.003906 C 45.617188 6.851562 45.007812 7.429688 44.761719 7.292969 C 44.515625 7.15625 44.734375 6.359375 45.25 5.511719 Z M 45.25 5.511719 " fill-opacity="1" fill-rule="nonzero"/><path fill="#168355" d="M 45.847656 6.015625 C 46.730469 5.523438 47.566406 5.308594 47.710938 5.539062 C 47.859375 5.773438 47.253906 6.359375 46.371094 6.859375 C 45.484375 7.359375 44.652344 7.566406 44.503906 7.332031 C 44.355469 7.101562 44.960938 6.511719 45.847656 6.015625 Z M 45.847656 6.015625 " fill-opacity="1" fill-rule="nonzero"/><path fill="#168355" d="M 46.394531 6.597656 C 47.425781 6.566406 48.261719 6.757812 48.285156 7.023438 C 48.304688 7.292969 47.46875 7.535156 46.4375 7.566406 C 45.410156 7.597656 44.574219 7.40625 44.550781 7.140625 C 44.53125 6.871094 45.363281 6.628906 46.394531 6.597656 Z M 46.394531 6.597656 " fill-opacity="1" fill-rule="nonzero"/><path fill="#168355" d="M 42.8125 5.222656 C 42.292969 4.378906 42.066406 3.5625 42.292969 3.40625 C 42.523438 3.25 43.132812 3.808594 43.644531 4.648438 C 44.160156 5.492188 44.394531 6.308594 44.164062 6.464844 C 43.933594 6.625 43.328125 6.066406 42.8125 5.222656 Z M 42.8125 5.222656 " fill-opacity="1" fill-rule="nonzero"/><path fill="#168355" d="M 43.53125 4.917969 C 43.496094 3.898438 43.6875 3.050781 43.957031 3.035156 C 44.226562 3.019531 44.472656 3.816406 44.507812 4.835938 C 44.539062 5.855469 44.351562 6.703125 44.082031 6.71875 C 43.8125 6.738281 43.5625 5.933594 43.53125 4.917969 Z M 43.53125 4.917969 " fill-opacity="1" fill-rule="nonzero"/><path fill="#168355" d="M 44.292969 4.683594 C 44.734375 3.742188 45.285156 3.070312 45.527344 3.179688 C 45.769531 3.285156 45.609375 4.140625 45.167969 5.082031 C 44.726562 6.023438 44.175781 6.695312 43.933594 6.589844 C 43.691406 6.484375 43.851562 5.625 44.292969 4.683594 Z M 44.292969 4.683594 " fill-opacity="1" fill-rule="nonzero"/><path fill="#d12e27" d="M 43.816406 7.113281 C 43.800781 6.839844 43.875 6.589844 44.035156 6.371094 C 44.199219 6.152344 44.414062 6.011719 44.679688 5.949219 C 44.804688 5.929688 44.925781 5.9375 45.042969 5.972656 C 45.164062 6.003906 45.269531 6.0625 45.363281 6.144531 C 45.457031 6.230469 45.527344 6.328125 45.578125 6.441406 C 45.628906 6.554688 45.652344 6.675781 45.648438 6.800781 C 45.664062 7.074219 45.589844 7.324219 45.425781 7.542969 C 45.261719 7.761719 45.050781 7.902344 44.785156 7.964844 C 44.660156 7.984375 44.539062 7.976562 44.421875 7.941406 C 44.300781 7.90625 44.195312 7.847656 44.101562 7.765625 C 44.011719 7.683594 43.9375 7.585938 43.890625 7.472656 C 43.839844 7.359375 43.816406 7.238281 43.816406 7.113281 Z M 43.816406 7.113281 " fill-opacity="1" fill-rule="nonzero"/><path fill="#e13c30" d="M 44.183594 6.820312 C 44.179688 6.632812 44.234375 6.464844 44.351562 6.320312 C 44.46875 6.171875 44.621094 6.082031 44.804688 6.046875 C 44.976562 6.007812 45.132812 6.042969 45.273438 6.152344 C 45.414062 6.261719 45.488281 6.40625 45.496094 6.585938 C 45.503906 6.773438 45.449219 6.941406 45.328125 7.089844 C 45.210938 7.238281 45.058594 7.332031 44.875 7.367188 C 44.792969 7.382812 44.707031 7.382812 44.625 7.363281 C 44.542969 7.347656 44.46875 7.308594 44.402344 7.257812 C 44.332031 7.203125 44.28125 7.140625 44.242188 7.0625 C 44.203125 6.988281 44.183594 6.90625 44.183594 6.820312 Z M 44.183594 6.820312 " fill-opacity="1" fill-rule="nonzero"/><path fill="#ffffff" d="M 44.960938 6.183594 C 45.019531 6.132812 45.132812 6.167969 45.214844 6.265625 C 45.296875 6.359375 45.3125 6.480469 45.253906 6.53125 C 45.191406 6.582031 45.082031 6.546875 45 6.449219 C 44.921875 6.355469 44.902344 6.234375 44.960938 6.183594 Z M 44.960938 6.183594 " fill-opacity="1" fill-rule="nonzero"/><path fill="#168355" d="M 29.167969 5.644531 C 29.648438 4.777344 30.238281 4.179688 30.488281 4.308594 C 30.742188 4.433594 30.546875 5.238281 30.066406 6.105469 C 29.585938 6.96875 28.992188 7.566406 28.746094 7.441406 C 28.496094 7.316406 28.683594 6.507812 29.167969 5.644531 Z M 29.167969 5.644531 " fill-opacity="1" fill-rule="nonzero"/><path fill="#168355" d="M 29.78125 6.128906 C 30.652344 5.601562 31.476562 5.359375 31.628906 5.585938 C 31.78125 5.8125 31.203125 6.421875 30.335938 6.949219 C 29.46875 7.472656 28.640625 7.714844 28.488281 7.488281 C 28.335938 7.261719 28.917969 6.652344 29.78125 6.128906 Z M 29.78125 6.128906 " fill-opacity="1" fill-rule="nonzero"/><path fill="#168355" d="M 30.351562 6.691406 C 31.378906 6.621094 32.230469 6.78125 32.253906 7.050781 C 32.277344 7.316406 31.460938 7.585938 30.429688 7.65625 C 29.402344 7.722656 28.550781 7.5625 28.527344 7.292969 C 28.503906 7.027344 29.324219 6.757812 30.351562 6.691406 Z M 30.351562 6.691406 " fill-opacity="1" fill-rule="nonzero"/><path fill="#168355" d="M 26.722656 5.441406 C 26.175781 4.613281 25.917969 3.8125 26.140625 3.648438 C 26.367188 3.480469 26.992188 4.023438 27.539062 4.839844 C 28.085938 5.65625 28.34375 6.472656 28.117188 6.636719 C 27.890625 6.800781 27.269531 6.265625 26.722656 5.441406 Z M 26.722656 5.441406 " fill-opacity="1" fill-rule="nonzero"/><path fill="#168355" d="M 27.429688 5.105469 C 27.359375 4.089844 27.523438 3.234375 27.789062 3.203125 C 28.058594 3.167969 28.332031 3.964844 28.40625 4.984375 C 28.476562 6.003906 28.3125 6.851562 28.042969 6.886719 C 27.777344 6.921875 27.5 6.125 27.429688 5.105469 Z M 27.429688 5.105469 " fill-opacity="1" fill-rule="nonzero"/><path fill="#168355" d="M 28.1875 4.851562 C 28.59375 3.894531 29.121094 3.203125 29.371094 3.304688 C 29.617188 3.40625 29.484375 4.261719 29.078125 5.21875 C 28.667969 6.175781 28.144531 6.867188 27.894531 6.765625 C 27.648438 6.664062 27.777344 5.804688 28.1875 4.851562 Z M 28.1875 4.851562 " fill-opacity="1" fill-rule="nonzero"/><path fill="#d12e27" d="M 27.792969 7.296875 C 27.769531 7.023438 27.835938 6.773438 27.988281 6.546875 C 28.144531 6.320312 28.355469 6.171875 28.617188 6.101562 C 29.121094 5.996094 29.5625 6.359375 29.613281 6.914062 C 29.636719 7.1875 29.570312 7.4375 29.417969 7.660156 C 29.261719 7.886719 29.050781 8.035156 28.789062 8.109375 C 28.667969 8.132812 28.546875 8.128906 28.429688 8.097656 C 28.308594 8.066406 28.199219 8.011719 28.105469 7.933594 C 28.007812 7.855469 27.933594 7.761719 27.878906 7.648438 C 27.824219 7.539062 27.796875 7.421875 27.792969 7.296875 Z M 27.792969 7.296875 " fill-opacity="1" fill-rule="nonzero"/><path fill="#e13c30" d="M 28.148438 6.988281 C 28.140625 6.800781 28.191406 6.632812 28.304688 6.484375 C 28.417969 6.335938 28.566406 6.242188 28.75 6.203125 C 28.828125 6.179688 28.914062 6.175781 28.996094 6.191406 C 29.078125 6.203125 29.15625 6.238281 29.222656 6.285156 C 29.292969 6.335938 29.347656 6.398438 29.390625 6.472656 C 29.429688 6.546875 29.453125 6.628906 29.457031 6.714844 C 29.46875 6.902344 29.414062 7.070312 29.300781 7.21875 C 29.1875 7.367188 29.042969 7.460938 28.859375 7.5 C 28.6875 7.546875 28.53125 7.515625 28.386719 7.410156 C 28.242188 7.308594 28.164062 7.167969 28.148438 6.988281 Z M 28.148438 6.988281 " fill-opacity="1" fill-rule="nonzero"/><path fill="#ffffff" d="M 28.90625 6.328125 C 28.964844 6.273438 29.078125 6.304688 29.160156 6.398438 C 29.246094 6.488281 29.265625 6.609375 29.207031 6.660156 C 29.148438 6.714844 29.039062 6.683594 28.953125 6.589844 C 28.871094 6.5 28.847656 6.378906 28.90625 6.328125 Z M 28.90625 6.328125 " fill-opacity="1" fill-rule="nonzero"/><path fill="#168355" d="M 15.976562 6.046875 C 15.363281 5.273438 15.042969 4.492188 15.246094 4.308594 C 15.445312 4.125 16.121094 4.601562 16.738281 5.378906 C 17.355469 6.15625 17.671875 6.933594 17.46875 7.117188 C 17.265625 7.300781 16.589844 6.816406 15.976562 6.046875 Z M 15.976562 6.046875 " fill-opacity="1" fill-rule="nonzero"/><path fill="#168355" d="M 16.652344 5.648438 C 16.496094 4.640625 16.582031 3.777344 16.847656 3.71875 C 17.113281 3.660156 17.457031 4.433594 17.613281 5.441406 C 17.769531 6.449219 17.679688 7.3125 17.414062 7.371094 C 17.148438 7.425781 16.800781 6.65625 16.652344 5.648438 Z M 16.652344 5.648438 " fill-opacity="1" fill-rule="nonzero"/><path fill="#168355" d="M 17.378906 5.328125 C 17.707031 4.339844 18.175781 3.601562 18.429688 3.683594 C 18.683594 3.769531 18.613281 4.625 18.300781 5.617188 C 17.984375 6.605469 17.503906 7.339844 17.25 7.261719 C 16.996094 7.179688 17.054688 6.316406 17.378906 5.328125 Z M 17.378906 5.328125 " fill-opacity="1" fill-rule="nonzero"/><path fill="#168355" d="M 14.871094 8.25 C 13.90625 8.449219 13.070312 8.386719 13.003906 8.117188 C 12.933594 7.847656 13.660156 7.460938 14.625 7.261719 C 15.589844 7.0625 16.425781 7.121094 16.492188 7.394531 C 16.558594 7.667969 15.832031 8.050781 14.871094 8.25 Z M 14.871094 8.25 " fill-opacity="1" fill-rule="nonzero"/><path fill="#168355" d="M 14.828125 7.460938 C 13.867188 7.144531 13.148438 6.675781 13.214844 6.410156 C 13.277344 6.144531 14.117188 6.1875 15.082031 6.507812 C 16.042969 6.824219 16.761719 7.292969 16.695312 7.558594 C 16.625 7.824219 15.789062 7.78125 14.828125 7.460938 Z M 14.828125 7.460938 " fill-opacity="1" fill-rule="nonzero"/><path fill="#168355" d="M 14.875 6.660156 C 14.152344 5.921875 13.714844 5.167969 13.902344 4.964844 C 14.085938 4.765625 14.832031 5.21875 15.550781 5.960938 C 16.265625 6.699219 16.710938 7.453125 16.527344 7.652344 C 16.339844 7.851562 15.601562 7.402344 14.875 6.660156 Z M 14.875 6.660156 " fill-opacity="1" fill-rule="nonzero"/><path fill="#d12e27" d="M 16.988281 7.945312 C 16.726562 7.867188 16.519531 7.710938 16.371094 7.480469 C 16.222656 7.25 16.164062 7 16.195312 6.726562 C 16.222656 6.605469 16.269531 6.492188 16.34375 6.394531 C 16.414062 6.292969 16.503906 6.210938 16.613281 6.152344 C 16.722656 6.09375 16.835938 6.058594 16.960938 6.050781 C 17.082031 6.039062 17.203125 6.058594 17.316406 6.101562 C 17.578125 6.179688 17.78125 6.335938 17.933594 6.566406 C 18.082031 6.796875 18.140625 7.046875 18.105469 7.320312 C 18.082031 7.441406 18.035156 7.554688 17.960938 7.65625 C 17.890625 7.753906 17.800781 7.835938 17.691406 7.894531 C 17.582031 7.957031 17.46875 7.992188 17.34375 8 C 17.222656 8.007812 17.101562 7.988281 16.988281 7.945312 Z M 16.988281 7.945312 " fill-opacity="1" fill-rule="nonzero"/><path fill="#e13c30" d="M 16.828125 7.5 C 16.652344 7.4375 16.515625 7.324219 16.421875 7.164062 C 16.328125 7 16.296875 6.828125 16.328125 6.640625 C 16.339844 6.558594 16.371094 6.480469 16.414062 6.40625 C 16.460938 6.335938 16.519531 6.273438 16.59375 6.230469 C 16.664062 6.183594 16.742188 6.15625 16.828125 6.144531 C 16.914062 6.136719 16.996094 6.144531 17.078125 6.171875 C 17.25 6.234375 17.382812 6.347656 17.476562 6.507812 C 17.566406 6.671875 17.597656 6.84375 17.566406 7.027344 C 17.542969 7.203125 17.457031 7.339844 17.304688 7.4375 C 17.15625 7.53125 16.996094 7.554688 16.828125 7.5 Z M 16.828125 7.5 " fill-opacity="1" fill-rule="nonzero"/><path fill="#ffffff" d="M 16.503906 6.542969 C 16.476562 6.46875 16.550781 6.375 16.664062 6.332031 C 16.78125 6.289062 16.898438 6.3125 16.925781 6.386719 C 16.953125 6.460938 16.882812 6.554688 16.765625 6.597656 C 16.652344 6.640625 16.53125 6.613281 16.503906 6.542969 Z M 16.503906 6.542969 " fill-opacity="1" fill-rule="nonzero"/><path fill="#168355" d="M 63.554688 5.804688 C 63.976562 4.90625 64.523438 4.269531 64.78125 4.378906 C 65.035156 4.492188 64.902344 5.304688 64.484375 6.199219 C 64.0625 7.097656 63.511719 7.734375 63.253906 7.625 C 62.996094 7.515625 63.132812 6.699219 63.554688 5.804688 Z M 63.554688 5.804688 " fill-opacity="1" fill-rule="nonzero"/><path fill="#168355" d="M 64.203125 6.234375 C 65.03125 5.652344 65.839844 5.351562 66.007812 5.566406 C 66.175781 5.785156 65.632812 6.429688 64.808594 7.011719 C 63.984375 7.597656 63.171875 7.898438 63.003906 7.683594 C 62.835938 7.46875 63.371094 6.828125 64.203125 6.234375 Z M 64.203125 6.234375 " fill-opacity="1" fill-rule="nonzero"/><path fill="#168355" d="M 64.804688 6.761719 C 65.828125 6.625 66.691406 6.726562 66.730469 6.988281 C 66.769531 7.253906 65.972656 7.582031 64.953125 7.722656 C 63.929688 7.859375 63.070312 7.757812 63.027344 7.496094 C 62.988281 7.230469 63.785156 6.902344 64.804688 6.761719 Z M 64.804688 6.761719 " fill-opacity="1" fill-rule="nonzero"/><path fill="#168355" d="M 61.101562 5.773438 C 60.5 4.984375 60.1875 4.203125 60.398438 4.019531 C 60.613281 3.839844 61.273438 4.332031 61.875 5.117188 C 62.472656 5.90625 62.789062 6.6875 62.574219 6.867188 C 62.363281 7.046875 61.703125 6.558594 61.101562 5.773438 Z M 61.101562 5.773438 " fill-opacity="1" fill-rule="nonzero"/><path fill="#168355" d="M 61.792969 5.386719 C 61.652344 4.378906 61.753906 3.515625 62.019531 3.464844 C 62.285156 3.410156 62.617188 4.1875 62.757812 5.199219 C 62.898438 6.210938 62.792969 7.070312 62.527344 7.121094 C 62.261719 7.175781 61.921875 6.398438 61.792969 5.386719 Z M 61.792969 5.386719 " fill-opacity="1" fill-rule="nonzero"/><path fill="#168355" d="M 62.515625 5.082031 C 62.859375 4.097656 63.339844 3.371094 63.589844 3.457031 C 63.84375 3.542969 63.777344 4.398438 63.429688 5.382812 C 63.082031 6.371094 62.609375 7.09375 62.355469 7.007812 C 62.105469 6.925781 62.175781 6.0625 62.515625 5.082031 Z M 62.515625 5.082031 " fill-opacity="1" fill-rule="nonzero"/><path fill="#d12e27" d="M 62.296875 7.554688 C 62.253906 7.28125 62.300781 7.027344 62.445312 6.789062 C 62.585938 6.554688 62.785156 6.390625 63.042969 6.304688 C 63.164062 6.269531 63.285156 6.265625 63.40625 6.289062 C 63.527344 6.308594 63.636719 6.355469 63.738281 6.425781 C 63.839844 6.5 63.921875 6.589844 63.984375 6.695312 C 64.046875 6.804688 64.082031 6.917969 64.09375 7.042969 C 64.136719 7.316406 64.089844 7.570312 63.945312 7.808594 C 63.804688 8.042969 63.605469 8.207031 63.347656 8.292969 C 63.226562 8.328125 63.105469 8.332031 62.984375 8.308594 C 62.863281 8.289062 62.75 8.242188 62.648438 8.171875 C 62.550781 8.101562 62.46875 8.011719 62.40625 7.902344 C 62.34375 7.792969 62.308594 7.679688 62.296875 7.554688 Z M 62.296875 7.554688 " fill-opacity="1" fill-rule="nonzero"/><path fill="#e13c30" d="M 62.628906 7.21875 C 62.609375 7.03125 62.648438 6.859375 62.75 6.703125 C 62.855469 6.546875 62.996094 6.441406 63.171875 6.386719 C 63.253906 6.359375 63.335938 6.351562 63.417969 6.359375 C 63.503906 6.371094 63.582031 6.398438 63.652344 6.441406 C 63.726562 6.488281 63.785156 6.542969 63.832031 6.617188 C 63.878906 6.6875 63.90625 6.765625 63.917969 6.851562 C 63.941406 7.035156 63.902344 7.207031 63.800781 7.363281 C 63.699219 7.519531 63.558594 7.625 63.378906 7.679688 C 63.210938 7.734375 63.050781 7.71875 62.898438 7.625 C 62.746094 7.53125 62.65625 7.394531 62.628906 7.21875 Z M 62.628906 7.21875 " fill-opacity="1" fill-rule="nonzero"/><path fill="#ffffff" d="M 63.339844 6.503906 C 63.394531 6.445312 63.507812 6.46875 63.597656 6.554688 C 63.6875 6.640625 63.71875 6.757812 63.664062 6.816406 C 63.609375 6.871094 63.496094 6.851562 63.40625 6.765625 C 63.316406 6.679688 63.285156 6.5625 63.339844 6.503906 Z M 63.339844 6.503906 " fill-opacity="1" fill-rule="nonzero"/><path fill="#168355" d="M 74.539062 5.585938 C 75.023438 4.71875 75.613281 4.121094 75.863281 4.246094 C 76.109375 4.375 75.921875 5.1875 75.441406 6.042969 C 74.957031 6.898438 74.367188 7.507812 74.117188 7.378906 C 73.871094 7.253906 74.058594 6.449219 74.539062 5.585938 Z M 74.539062 5.585938 " fill-opacity="1" fill-rule="nonzero"/><path fill="#168355" d="M 75.15625 6.066406 C 76.023438 5.542969 76.851562 5.300781 77.003906 5.527344 C 77.15625 5.75 76.574219 6.363281 75.707031 6.886719 C 74.839844 7.414062 74.015625 7.65625 73.863281 7.429688 C 73.710938 7.199219 74.289062 6.59375 75.15625 6.066406 Z M 75.15625 6.066406 " fill-opacity="1" fill-rule="nonzero"/><path fill="#168355" d="M 75.726562 6.628906 C 76.753906 6.5625 77.605469 6.722656 77.628906 6.988281 C 77.652344 7.257812 76.832031 7.527344 75.804688 7.59375 C 74.777344 7.664062 73.925781 7.5 73.902344 7.234375 C 73.878906 6.96875 74.699219 6.695312 75.726562 6.628906 Z M 75.726562 6.628906 " fill-opacity="1" fill-rule="nonzero"/><path fill="#168355" d="M 72.097656 5.382812 C 71.550781 4.554688 71.292969 3.753906 71.515625 3.585938 C 71.738281 3.421875 72.367188 3.964844 72.910156 4.78125 C 73.457031 5.601562 73.71875 6.410156 73.492188 6.578125 C 73.265625 6.742188 72.640625 6.207031 72.097656 5.382812 Z M 72.097656 5.382812 " fill-opacity="1" fill-rule="nonzero"/><path fill="#168355" d="M 72.808594 5.046875 C 72.738281 4.027344 72.898438 3.175781 73.167969 3.140625 C 73.433594 3.109375 73.710938 3.90625 73.78125 4.921875 C 73.851562 5.941406 73.691406 6.792969 73.421875 6.828125 C 73.152344 6.863281 72.875 6.066406 72.808594 5.046875 Z M 72.808594 5.046875 " fill-opacity="1" fill-rule="nonzero"/><path fill="#168355" d="M 73.554688 4.792969 C 73.960938 3.835938 74.488281 3.144531 74.738281 3.242188 C 74.984375 3.34375 74.851562 4.203125 74.445312 5.160156 C 74.039062 6.117188 73.511719 6.804688 73.261719 6.703125 C 73.015625 6.601562 73.148438 5.746094 73.554688 4.792969 Z M 73.554688 4.792969 " fill-opacity="1" fill-rule="nonzero"/><path fill="#d12e27" d="M 73.167969 7.234375 C 73.144531 6.960938 73.207031 6.714844 73.363281 6.488281 C 73.519531 6.261719 73.726562 6.113281 73.988281 6.042969 C 74.492188 5.933594 74.9375 6.296875 74.988281 6.851562 C 75.011719 7.125 74.945312 7.375 74.789062 7.601562 C 74.636719 7.828125 74.425781 7.976562 74.164062 8.046875 C 74.042969 8.070312 73.921875 8.070312 73.800781 8.039062 C 73.679688 8.007812 73.574219 7.953125 73.476562 7.875 C 73.382812 7.796875 73.304688 7.703125 73.253906 7.589844 C 73.199219 7.480469 73.171875 7.359375 73.167969 7.234375 Z M 73.167969 7.234375 " fill-opacity="1" fill-rule="nonzero"/><path fill="#e13c30" d="M 73.523438 6.929688 C 73.511719 6.742188 73.5625 6.574219 73.675781 6.425781 C 73.789062 6.277344 73.933594 6.183594 74.113281 6.140625 C 74.285156 6.097656 74.445312 6.125 74.589844 6.230469 C 74.734375 6.335938 74.8125 6.476562 74.828125 6.652344 C 74.835938 6.839844 74.785156 7.007812 74.671875 7.160156 C 74.554688 7.308594 74.410156 7.402344 74.226562 7.441406 C 74.144531 7.460938 74.0625 7.464844 73.980469 7.449219 C 73.898438 7.433594 73.824219 7.402344 73.753906 7.351562 C 73.6875 7.304688 73.632812 7.242188 73.589844 7.167969 C 73.550781 7.09375 73.527344 7.011719 73.523438 6.929688 Z M 73.523438 6.929688 " fill-opacity="1" fill-rule="nonzero"/><path fill="#ffffff" d="M 74.277344 6.269531 C 74.335938 6.214844 74.449219 6.246094 74.53125 6.335938 C 74.617188 6.429688 74.636719 6.546875 74.582031 6.601562 C 74.527344 6.65625 74.410156 6.625 74.328125 6.53125 C 74.246094 6.4375 74.222656 6.320312 74.277344 6.269531 Z M 74.277344 6.269531 " fill-opacity="1" fill-rule="nonzero"/><path fill="#d12e27" d="M 35.050781 8.097656 C 34.847656 8.027344 34.703125 7.890625 34.617188 7.695312 C 34.53125 7.496094 34.527344 7.300781 34.609375 7.101562 C 34.699219 6.902344 34.847656 6.761719 35.050781 6.683594 C 35.25 6.601562 35.453125 6.601562 35.652344 6.6875 C 35.855469 6.757812 36 6.890625 36.089844 7.089844 C 36.175781 7.285156 36.179688 7.484375 36.097656 7.683594 C 36.007812 7.882812 35.859375 8.023438 35.65625 8.101562 C 35.453125 8.183594 35.253906 8.179688 35.050781 8.097656 Z M 35.050781 8.097656 " fill-opacity="1" fill-rule="nonzero"/><path fill="#e13c30" d="M 35.007812 7.742188 C 34.871094 7.6875 34.777344 7.589844 34.726562 7.453125 C 34.671875 7.3125 34.679688 7.179688 34.742188 7.046875 C 34.796875 6.90625 34.894531 6.808594 35.027344 6.746094 C 35.160156 6.683594 35.300781 6.675781 35.4375 6.726562 C 35.574219 6.78125 35.667969 6.878906 35.722656 7.015625 C 35.773438 7.15625 35.769531 7.289062 35.707031 7.425781 C 35.648438 7.5625 35.554688 7.660156 35.417969 7.722656 C 35.285156 7.785156 35.144531 7.789062 35.007812 7.742188 Z M 35.007812 7.742188 " fill-opacity="1" fill-rule="nonzero"/><path fill="#ffffff" d="M 34.910156 6.976562 C 34.898438 6.917969 34.972656 6.851562 35.078125 6.824219 C 35.183594 6.796875 35.277344 6.824219 35.289062 6.882812 C 35.300781 6.941406 35.222656 7.007812 35.117188 7.035156 C 35.011719 7.0625 34.910156 7.035156 34.910156 6.976562 Z M 34.910156 6.976562 " fill-opacity="1" fill-rule="nonzero"/><path fill="#d12e27" d="M 20.402344 8.632812 C 20.199219 8.5625 20.054688 8.425781 19.964844 8.230469 C 19.878906 8.03125 19.875 7.832031 19.957031 7.632812 C 20.046875 7.433594 20.195312 7.292969 20.398438 7.214844 C 20.601562 7.132812 20.804688 7.136719 21.003906 7.21875 C 21.207031 7.289062 21.351562 7.425781 21.4375 7.621094 C 21.527344 7.820312 21.53125 8.015625 21.449219 8.214844 C 21.355469 8.414062 21.210938 8.554688 21.007812 8.636719 C 20.804688 8.714844 20.601562 8.714844 20.402344 8.632812 Z M 20.402344 8.632812 " fill-opacity="1" fill-rule="nonzero"/><path fill="#e13c30" d="M 20.355469 8.273438 C 20.222656 8.21875 20.128906 8.121094 20.074219 7.984375 C 20.023438 7.84375 20.027344 7.710938 20.089844 7.578125 C 20.144531 7.4375 20.242188 7.339844 20.375 7.277344 C 20.511719 7.214844 20.648438 7.210938 20.789062 7.257812 C 20.925781 7.316406 21.019531 7.410156 21.070312 7.550781 C 21.121094 7.6875 21.117188 7.820312 21.054688 7.953125 C 21 8.09375 20.902344 8.191406 20.769531 8.253906 C 20.632812 8.316406 20.496094 8.324219 20.355469 8.273438 Z M 20.355469 8.273438 " fill-opacity="1" fill-rule="nonzero"/><path fill="#ffffff" d="M 20.253906 7.511719 C 20.253906 7.449219 20.320312 7.382812 20.425781 7.355469 C 20.53125 7.328125 20.625 7.355469 20.632812 7.414062 C 20.644531 7.472656 20.566406 7.542969 20.460938 7.570312 C 20.359375 7.59375 20.265625 7.570312 20.253906 7.511719 Z M 20.253906 7.511719 " fill-opacity="1" fill-rule="nonzero"/><path fill="#d12e27" d="M 38.601562 8.707031 C 38.398438 8.636719 38.253906 8.503906 38.167969 8.304688 C 38.078125 8.109375 38.074219 7.910156 38.15625 7.710938 C 38.25 7.511719 38.394531 7.371094 38.597656 7.292969 C 38.800781 7.210938 39 7.210938 39.203125 7.292969 C 39.40625 7.367188 39.550781 7.5 39.640625 7.699219 C 39.726562 7.894531 39.730469 8.09375 39.648438 8.292969 C 39.554688 8.492188 39.410156 8.632812 39.207031 8.710938 C 39.003906 8.792969 38.800781 8.789062 38.601562 8.707031 Z M 38.601562 8.707031 " fill-opacity="1" fill-rule="nonzero"/><path fill="#e13c30" d="M 38.554688 8.351562 C 38.421875 8.292969 38.328125 8.195312 38.273438 8.058594 C 38.222656 7.921875 38.226562 7.785156 38.289062 7.652344 C 38.347656 7.515625 38.441406 7.414062 38.578125 7.355469 C 38.710938 7.292969 38.847656 7.285156 38.988281 7.332031 C 39.125 7.390625 39.21875 7.488281 39.269531 7.625 C 39.324219 7.761719 39.316406 7.898438 39.253906 8.03125 C 39.199219 8.167969 39.101562 8.269531 38.96875 8.332031 C 38.832031 8.390625 38.695312 8.398438 38.554688 8.351562 Z M 38.554688 8.351562 " fill-opacity="1" fill-rule="nonzero"/><path fill="#ffffff" d="M 38.457031 7.585938 C 38.445312 7.527344 38.523438 7.457031 38.628906 7.429688 C 38.734375 7.40625 38.824219 7.429688 38.835938 7.492188 C 38.84375 7.550781 38.769531 7.621094 38.664062 7.644531 C 38.558594 7.667969 38.457031 7.644531 38.457031 7.585938 Z M 38.457031 7.585938 " fill-opacity="1" fill-rule="nonzero"/><path fill="#d12e27" d="M 49.929688 7.71875 C 49.726562 7.648438 49.582031 7.511719 49.492188 7.316406 C 49.40625 7.117188 49.402344 6.917969 49.484375 6.71875 C 49.578125 6.519531 49.722656 6.382812 49.925781 6.300781 C 50.128906 6.222656 50.332031 6.222656 50.53125 6.304688 C 50.734375 6.378906 50.878906 6.511719 50.964844 6.707031 C 51.054688 6.90625 51.054688 7.105469 50.972656 7.304688 C 50.882812 7.503906 50.734375 7.640625 50.535156 7.722656 C 50.332031 7.800781 50.128906 7.800781 49.929688 7.71875 Z M 49.929688 7.71875 " fill-opacity="1" fill-rule="nonzero"/><path fill="#e13c30" d="M 49.882812 7.367188 C 49.75 7.308594 49.65625 7.210938 49.601562 7.074219 C 49.550781 6.9375 49.554688 6.800781 49.617188 6.667969 C 49.671875 6.53125 49.769531 6.429688 49.902344 6.367188 C 50.039062 6.308594 50.175781 6.300781 50.316406 6.347656 C 50.453125 6.402344 50.546875 6.5 50.601562 6.636719 C 50.65625 6.773438 50.652344 6.90625 50.589844 7.042969 C 50.535156 7.183594 50.441406 7.285156 50.300781 7.347656 C 50.164062 7.410156 50.027344 7.417969 49.882812 7.367188 Z M 49.882812 7.367188 " fill-opacity="1" fill-rule="nonzero"/><path fill="#ffffff" d="M 49.78125 6.59375 C 49.773438 6.535156 49.847656 6.46875 49.953125 6.441406 C 50.058594 6.414062 50.152344 6.441406 50.160156 6.5 C 50.167969 6.5625 50.09375 6.628906 49.992188 6.65625 C 49.886719 6.683594 49.792969 6.652344 49.78125 6.59375 Z M 49.78125 6.59375 " fill-opacity="1" fill-rule="nonzero"/><path fill="#d12e27" d="M 55.667969 8.632812 C 55.464844 8.5625 55.320312 8.425781 55.230469 8.230469 C 55.144531 8.03125 55.140625 7.832031 55.222656 7.632812 C 55.316406 7.433594 55.460938 7.292969 55.664062 7.214844 C 55.867188 7.132812 56.070312 7.136719 56.269531 7.21875 C 56.472656 7.289062 56.617188 7.425781 56.707031 7.621094 C 56.792969 7.820312 56.796875 8.015625 56.714844 8.214844 C 56.625 8.414062 56.476562 8.554688 56.273438 8.636719 C 56.070312 8.714844 55.871094 8.714844 55.667969 8.632812 Z M 55.667969 8.632812 " fill-opacity="1" fill-rule="nonzero"/><path fill="#e13c30" d="M 55.632812 8.273438 C 55.496094 8.21875 55.402344 8.121094 55.351562 7.984375 C 55.296875 7.84375 55.304688 7.710938 55.367188 7.578125 C 55.421875 7.4375 55.519531 7.339844 55.652344 7.277344 C 55.789062 7.214844 55.925781 7.210938 56.066406 7.257812 C 56.199219 7.316406 56.292969 7.410156 56.347656 7.550781 C 56.398438 7.6875 56.394531 7.820312 56.332031 7.953125 C 56.273438 8.09375 56.179688 8.191406 56.042969 8.253906 C 55.910156 8.316406 55.773438 8.324219 55.632812 8.273438 Z M 55.632812 8.273438 " fill-opacity="1" fill-rule="nonzero"/><path fill="#ffffff" d="M 55.519531 7.511719 C 55.519531 7.449219 55.585938 7.382812 55.691406 7.355469 C 55.796875 7.328125 55.890625 7.355469 55.902344 7.414062 C 55.914062 7.472656 55.832031 7.542969 55.730469 7.570312 C 55.625 7.59375 55.53125 7.570312 55.519531 7.511719 Z M 55.519531 7.511719 " fill-opacity="1" fill-rule="nonzero"/><path fill="#d12e27" d="M 68.355469 8.25 C 68.152344 8.179688 68.007812 8.046875 67.921875 7.847656 C 67.832031 7.652344 67.828125 7.453125 67.910156 7.253906 C 68.003906 7.054688 68.148438 6.914062 68.351562 6.835938 C 68.554688 6.753906 68.753906 6.753906 68.957031 6.839844 C 69.160156 6.910156 69.304688 7.042969 69.390625 7.242188 C 69.480469 7.4375 69.484375 7.636719 69.402344 7.835938 C 69.308594 8.035156 69.164062 8.175781 68.960938 8.253906 C 68.757812 8.335938 68.554688 8.332031 68.355469 8.25 Z M 68.355469 8.25 " fill-opacity="1" fill-rule="nonzero"/><path fill="#e13c30" d="M 68.308594 7.894531 C 68.175781 7.835938 68.082031 7.738281 68.027344 7.601562 C 67.976562 7.464844 67.980469 7.328125 68.042969 7.195312 C 68.101562 7.058594 68.195312 6.957031 68.328125 6.898438 C 68.464844 6.835938 68.601562 6.828125 68.742188 6.875 C 68.875 6.933594 68.972656 7.03125 69.023438 7.167969 C 69.074219 7.304688 69.070312 7.441406 69.007812 7.574219 C 68.953125 7.710938 68.855469 7.8125 68.722656 7.875 C 68.585938 7.933594 68.449219 7.941406 68.308594 7.894531 Z M 68.308594 7.894531 " fill-opacity="1" fill-rule="nonzero"/><path fill="#ffffff" d="M 68.207031 7.128906 C 68.195312 7.070312 68.273438 7 68.378906 6.976562 C 68.484375 6.953125 68.578125 6.976562 68.585938 7.035156 C 68.597656 7.09375 68.523438 7.164062 68.417969 7.1875 C 68.3125 7.214844 68.21875 7.1875 68.207031 7.128906 Z M 68.207031 7.128906 " fill-opacity="1" fill-rule="nonzero"/><path fill="#d12e27" d="M 78.472656 8.402344 C 78.273438 8.332031 78.125 8.199219 78.039062 8 C 77.953125 7.804688 77.949219 7.605469 78.03125 7.40625 C 78.121094 7.207031 78.269531 7.066406 78.472656 6.988281 C 78.675781 6.90625 78.875 6.90625 79.078125 6.992188 C 79.277344 7.0625 79.421875 7.195312 79.511719 7.394531 C 79.597656 7.589844 79.601562 7.789062 79.519531 7.988281 C 79.429688 8.1875 79.28125 8.328125 79.078125 8.40625 C 78.878906 8.488281 78.675781 8.484375 78.472656 8.402344 Z M 78.472656 8.402344 " fill-opacity="1" fill-rule="nonzero"/><path fill="#e13c30" d="M 78.429688 8.046875 C 78.292969 7.988281 78.199219 7.890625 78.148438 7.753906 C 78.09375 7.617188 78.101562 7.480469 78.164062 7.347656 C 78.21875 7.210938 78.3125 7.109375 78.449219 7.046875 C 78.585938 6.988281 78.722656 6.980469 78.863281 7.027344 C 78.996094 7.085938 79.089844 7.183594 79.144531 7.320312 C 79.195312 7.457031 79.191406 7.59375 79.128906 7.726562 C 79.070312 7.863281 78.976562 7.964844 78.839844 8.027344 C 78.707031 8.085938 78.570312 8.09375 78.429688 8.046875 Z M 78.429688 8.046875 " fill-opacity="1" fill-rule="nonzero"/><path fill="#ffffff" d="M 78.328125 7.28125 C 78.316406 7.222656 78.394531 7.152344 78.5 7.125 C 78.601562 7.101562 78.695312 7.125 78.707031 7.1875 C 78.714844 7.246094 78.640625 7.316406 78.535156 7.339844 C 78.429688 7.367188 78.339844 7.339844 78.328125 7.28125 Z M 78.328125 7.28125 " fill-opacity="1" fill-rule="nonzero"/></svg>